<svg xmlns="http://www.w3.org/2000/svg" viewBox="0 0 131.44 151.4"><defs><style>.cls-1{fill:#fff;}</style></defs><g id="Layer_2" data-name="Layer 2"><g id="Layer_1-2" data-name="Layer 1"><g id="Layer_2-2" data-name="Layer 2"><g id="Layer_1-2-2" data-name="Layer 1-2"><path class="cls-1" d="M111,0H57.57a4.79,4.79,0,0,0-1.24.25h-.14a3.64,3.64,0,0,0-.57.25h0a3.87,3.87,0,0,0-.55.34L54.94,1a5.15,5.15,0,0,0-.5.43L1.4,54.6a4.93,4.93,0,0,0-.42.49.64.64,0,0,1-.1.13c-.12.18-.23.35-.34.54h0c-.09.18-.17.37-.24.55l-.06.15c-.06.21-.12.41-.16.61h0a3.19,3.19,0,0,0-.08.62V130.9a20.53,20.53,0,0,0,20.4,20.5h90.54a20.54,20.54,0,0,0,20.5-20.5V20.5A20.53,20.53,0,0,0,111,0ZM32.59,37.18,53,16.72V42.45A10.73,10.73,0,0,1,42.3,53.16H16.64Zm89.1,93.72A10.73,10.73,0,0,1,111,141.61H20.4A10.73,10.73,0,0,1,9.73,130.9V63H42.3a20,20,0,0,0,2.45-.15c-.06.61-.1,1.24-.1,1.87,0,10.45,7.86,15.83,19.38,19.71,8,2.69,11.42,5.27,11.42,9.36,0,4.31-4.2,6.68-10.34,6.68a37.91,37.91,0,0,1-17.87-4.74L44,108.33c4.09,2.37,11.09,4.31,18.3,4.63v10.23H72.86v-11C85.24,110,92,101.82,92,92.24S86.86,76.62,74,72.1c-9.15-3.44-12.93-5.7-12.93-9.26,0-3,2.27-6,9.27-6a35.77,35.77,0,0,1,15.5,3.66L89,48.34c-3.55-1.72-8.4-3.23-15.61-3.55V35.28H62.85V45.51l-.29.07a20.52,20.52,0,0,0,.24-3.13V9.79H111A10.73,10.73,0,0,1,121.69,20.5Z"/></g></g></g></g></svg>