<svg width="313" height="100" viewBox="0 0 313 100" fill="none" xmlns="http://www.w3.org/2000/svg">
<path d="M52.8698 4.85232C48.9549 1.62005 43.8463 0 37.544 0H13.1448C11.2127 0 10.1453 1.16046 9.94256 3.47914L0.0311118 78.2009C-0.0718994 78.9348 0.0809856 79.6059 0.488369 80.2161C0.893422 80.8274 1.40288 81.1314 2.01303 81.1314H13.6025C15.6352 81.1314 16.7525 79.9737 16.9576 77.6523L19.7021 57.5074C19.8023 56.5311 20.1598 55.7373 20.7699 55.126C21.3796 54.5159 22.1422 54.1167 23.0571 53.9342C23.9721 53.7528 24.8349 53.661 25.6497 53.661C26.4621 53.661 27.4274 53.7232 28.5475 53.8447C29.6648 53.9661 30.377 54.026 30.6823 54.026C39.4247 54.026 46.2869 51.0675 51.2692 45.1437C56.2491 39.2233 58.7419 31.0133 58.7419 20.5104C58.7419 13.3069 56.7828 8.08795 52.8698 4.85064V4.85232ZM40.2898 27.289C39.7799 31.563 38.4599 34.3699 36.3251 35.7134C34.1898 37.0586 31.14 37.7281 27.1757 37.7281L22.1431 37.9106L24.7361 18.3138C24.9384 16.9719 25.5989 16.3002 26.718 16.3002H29.6163C33.6808 16.3002 36.6308 17.0038 38.4608 18.4056C40.2898 19.8107 40.9 22.7725 40.2898 27.289V27.289Z" fill="#003087"/>
<path d="M310.354 0H299.071C297.95 0 297.29 0.671763 297.088 2.01583L287.176 78.2041L287.023 78.5702C287.023 79.1837 287.226 79.7609 287.634 80.3106C288.038 80.8592 288.549 81.1341 289.158 81.1341H299.224C301.153 81.1341 302.221 79.9764 302.427 77.6549L312.339 2.7486V2.56667C312.338 0.856492 311.675 0.0022465 310.354 0.0022465V0Z" fill="#009CDE"/>
<path d="M174.026 29.4888C174.026 28.8797 173.822 28.2987 173.418 27.7506C173.01 27.2015 172.552 26.9249 172.045 26.9249H160.303C159.183 26.9249 158.268 27.5385 157.557 28.756L141.393 57.3274L134.684 29.856C134.173 27.904 133.056 26.9249 131.329 26.9249H119.89C119.38 26.9249 118.923 27.2003 118.519 27.7506C118.111 28.2987 117.909 28.8809 117.909 29.4888C117.909 29.7345 118.9 33.3351 120.882 40.2945C122.864 47.2561 124.999 54.7652 127.287 62.824C129.574 70.8811 130.768 75.1569 130.87 75.6411C122.533 89.318 118.367 96.6435 118.367 97.6186C118.367 99.2073 119.026 100 120.349 100H132.091C133.209 100 134.123 99.391 134.836 98.1695L173.723 30.7702C173.925 30.5283 174.026 30.1029 174.026 29.4882V29.4888Z" fill="#003087"/>
<path d="M283.366 26.9255H271.776C270.351 26.9255 269.49 28.9407 269.185 32.9707C266.538 28.0882 261.713 25.6435 254.696 25.6435C247.377 25.6435 241.15 28.9407 236.017 35.534C230.882 42.1273 228.316 49.8828 228.316 58.7948C228.316 65.9999 230.07 71.7378 233.576 76.0097C237.084 80.286 241.785 82.4199 247.683 82.4199C250.631 82.4199 253.63 81.686 256.68 80.2221C259.73 78.7571 262.116 76.8046 263.848 74.3616C263.848 74.4842 263.744 75.0317 263.543 76.008C263.338 76.9865 263.237 77.7215 263.237 78.2058C263.237 80.1617 263.897 81.1357 265.22 81.1357H275.743C277.672 81.1357 278.792 79.9781 279.096 77.6566L285.349 29.8554C285.449 29.1221 285.297 28.452 284.891 27.8407C284.483 27.2317 283.976 26.9255 283.366 26.9255V26.9255ZM263.466 63.0067C260.873 66.0593 257.747 67.5847 254.087 67.5847C251.138 67.5847 248.751 66.6095 246.92 64.6547C245.089 62.7055 244.174 60.019 244.174 56.5964C244.174 52.0822 245.445 48.2633 247.988 45.1502C250.526 42.0366 253.68 40.4804 257.442 40.4804C260.286 40.4804 262.65 41.4875 264.533 43.5011C266.412 45.5163 267.355 48.2941 267.355 51.8359C267.354 56.2309 266.058 59.9558 263.466 63.0067Z" fill="#009CDE"/>
<path d="M110.131 26.9255H98.5413C97.1159 26.9255 96.2536 28.9407 95.9483 32.9707C93.2034 28.0882 88.374 25.6435 81.4612 25.6435C74.1414 25.6435 67.9138 28.9407 62.7805 35.534C57.6459 42.1273 55.08 49.8828 55.08 58.7948C55.08 65.9999 56.8339 71.7378 60.3414 76.0097C63.8488 80.286 68.5495 82.4199 74.4467 82.4199C77.2919 82.4199 80.2419 81.686 83.2911 80.2221C86.3409 78.7572 88.781 76.8046 90.6109 74.3616C90.2031 75.8255 90.0008 77.108 90.0008 78.2058C90.0008 80.1617 90.6612 81.1357 91.9831 81.1357H102.505C104.435 81.1357 105.555 79.9781 105.86 77.6566L112.112 29.8554C112.212 29.1221 112.06 28.452 111.655 27.8407C111.248 27.2317 110.74 26.9255 110.131 26.9255ZM90.2306 63.0974C87.6376 66.0923 84.4592 67.5847 80.7 67.5847C77.7501 67.5847 75.3864 66.6095 73.6087 64.6547C71.8286 62.7055 70.9397 60.019 70.9397 56.5964C70.9397 52.0822 72.2099 48.2633 74.7525 45.1502C77.2923 42.0366 80.4442 40.4798 84.207 40.4798C87.0522 40.4798 89.4158 41.4875 91.2984 43.5011C93.1778 45.5163 94.1193 48.2941 94.1193 51.8359C94.1188 56.3535 92.8231 60.1092 90.2306 63.0974Z" fill="#003087"/>
<path d="M226.105 4.85231C222.19 1.62005 217.083 0 210.779 0H186.532C184.499 0 183.38 1.16046 183.178 3.47913L173.265 78.2008C173.162 78.9347 173.315 79.6058 173.723 80.216C174.126 80.8273 174.637 81.1313 175.247 81.1313H187.751C188.971 81.1313 189.784 80.3386 190.192 78.751L192.937 57.5073C193.038 56.531 193.394 55.7373 194.005 55.126C194.615 54.5158 195.376 54.1166 196.292 53.9341C197.206 53.7528 198.069 53.661 198.884 53.661C199.697 53.661 200.662 53.7231 201.781 53.8446C202.899 53.9661 203.613 54.0259 203.916 54.0259C212.66 54.0259 219.521 51.0674 224.503 45.1437C229.485 39.2232 231.975 31.0133 231.975 20.5104C231.976 13.3069 230.018 8.08737 226.105 4.85063V4.85231ZM210.475 34.98C208.238 36.8111 204.882 37.7264 200.41 37.7264L195.53 37.91L198.122 18.3126C198.324 16.9713 198.985 16.2985 200.104 16.2985H202.848C205.085 16.2985 206.864 16.4211 208.187 16.6646C209.506 16.9098 210.779 17.6716 211.999 18.953C213.22 20.2355 213.829 22.0985 213.829 24.5392C213.829 29.6692 212.71 33.1472 210.475 34.98Z" fill="#009CDE"/>
</svg>
