<svg width="242" height="100" viewBox="0 0 242 100" fill="none" xmlns="http://www.w3.org/2000/svg">
<g clip-path="url(#clip0_197_416)">
<path fill-rule="evenodd" clip-rule="evenodd" d="M44.8238 12.8925C42.0039 16.2702 37.4922 18.9344 32.9804 18.5538C32.4164 13.9867 34.6253 9.13416 37.2102 6.13702C40.03 2.66413 44.9648 0.190295 48.9595 0C49.4295 4.75738 47.5966 9.4196 44.8238 12.8925ZM48.9122 19.4576C44.9374 19.2261 41.3106 20.6677 38.3811 21.8321C36.4959 22.5814 34.8995 23.216 33.685 23.216C32.322 23.216 30.6597 22.5475 28.7933 21.7969C26.3477 20.8135 23.5517 19.6891 20.6197 19.7431C13.8991 19.8382 7.64839 23.6917 4.21758 29.8287C-2.83204 42.1027 2.38468 60.2759 9.19931 70.2664C12.5361 75.214 16.5309 80.6375 21.7946 80.4472C24.1103 80.3587 25.7761 79.6432 27.5001 78.9027C29.4848 78.0502 31.5466 77.1646 34.7659 77.1646C37.8736 77.1646 39.8453 78.0271 41.7379 78.8551C43.5375 79.6423 45.2657 80.3984 47.8312 80.352C53.2829 80.2569 56.7137 75.4043 60.0505 70.4567C63.6514 65.1466 65.2339 59.9643 65.4741 59.1776L65.4741 59.1775C65.4878 59.1326 65.4972 59.102 65.5023 59.0865C65.4965 59.0807 65.4521 59.0601 65.3737 59.0238L65.3735 59.0237C64.1698 58.4659 54.9691 54.2022 54.8808 42.7688C54.7922 33.1721 62.1786 28.3098 63.3413 27.5444L63.3415 27.5443C63.4121 27.4978 63.4598 27.4664 63.4814 27.45C58.7816 20.4091 51.45 19.6479 48.9122 19.4576ZM86.6515 79.8287V5.66125H114.145C128.338 5.66125 138.255 15.5566 138.255 30.019C138.255 44.4814 128.15 54.4719 113.769 54.4719H98.0249V79.8287H86.6515ZM98.025 15.3663H111.137C121.007 15.3663 126.646 20.6946 126.646 30.0666C126.646 39.4386 121.007 44.8144 111.09 44.8144H98.025V15.3663ZM175.805 70.9324C172.797 76.7364 166.171 80.3996 159.027 80.3996C148.453 80.3996 141.074 74.0247 141.074 64.4148C141.074 54.9001 148.218 49.4291 161.424 48.6204L175.617 47.764V43.6727C175.617 37.6308 171.716 34.3482 164.761 34.3482C159.027 34.3482 154.844 37.3454 153.998 41.9125H143.753C144.082 32.3026 153.011 25.3092 165.09 25.3092C178.108 25.3092 186.567 32.2074 186.567 42.9115V79.8287H176.04V70.9324H175.805ZM162.082 71.5985C156.02 71.5985 152.166 68.6489 152.166 64.1294C152.166 59.4672 155.879 56.7555 162.975 56.3273L175.617 55.5186V59.7051C175.617 66.6508 169.79 71.5985 162.082 71.5985ZM221.487 82.7308C216.928 95.7184 211.712 100 200.62 100C199.774 100 196.955 99.9049 196.297 99.7146V90.8183C197.002 90.9135 198.74 91.0086 199.633 91.0086C204.662 91.0086 207.482 88.8678 209.221 83.3017L210.255 80.0191L190.986 26.0229H202.876L216.271 69.8383H216.506L229.9 26.0229H241.461L221.487 82.7308Z" fill="black"/>
</g>
<defs>
<clipPath id="clip0_197_416">
<rect width="240.6" height="100" fill="white" transform="translate(0.861328)"/>
</clipPath>
</defs>
</svg>
