<svg width="240" height="100" viewBox="0 0 240 100" fill="none" xmlns="http://www.w3.org/2000/svg">
    <path d="M0.280273 97.4955V88.9738H6.59834V90.4159H2.00112V92.3049H6.27909V93.7408H2.00112V96.0596H6.76186V97.4955H0.280273Z" fill="#10298E"/>
    <path d="M8.29175 88.974H9.92538V90.4846H8.29175V88.974ZM8.29175 91.3224H9.92538V97.4957H8.29175V91.3224Z" fill="#10298E"/>
    <path d="M17.2973 97.4955H15.6636V94.3451C15.6636 93.6785 15.6294 93.2471 15.5593 93.0509C15.4892 92.8563 15.3771 92.7052 15.2198 92.5962C15.0625 92.4872 14.8741 92.4327 14.6529 92.4327C14.3695 92.4327 14.1157 92.5105 13.8914 92.6663C13.6671 92.8204 13.5114 93.026 13.4289 93.2814C13.3448 93.5368 13.3043 94.0102 13.3043 94.6986V97.4955H11.6707V91.3223H13.1875V92.2287C13.7263 91.5325 14.4053 91.1837 15.2229 91.1837C15.5827 91.1837 15.9112 91.2475 16.2103 91.3784C16.5093 91.5076 16.7335 91.6742 16.8877 91.8751C17.0403 92.076 17.1478 92.305 17.2069 92.5604C17.2677 92.8158 17.2973 93.1833 17.2973 93.6598V97.4955Z" fill="#10298E"/>
    <path d="M20.6646 88.9743V92.1076C21.191 91.4909 21.8217 91.1826 22.5537 91.1826C22.929 91.1826 23.2685 91.2527 23.5706 91.3928C23.8727 91.5314 24.1001 91.7105 24.2543 91.927C24.4069 92.1435 24.5112 92.3848 24.5673 92.648C24.6234 92.9112 24.6514 93.3208 24.6514 93.8752V97.496H23.0193V94.2349C23.0193 93.5871 22.9882 93.1775 22.9259 93.0015C22.8636 92.8287 22.7546 92.6901 22.5973 92.5873C22.44 92.4845 22.2438 92.4331 22.0071 92.4331C21.7361 92.4331 21.4931 92.4985 21.2813 92.6293C21.068 92.7617 20.9123 92.9611 20.8126 93.2258C20.7145 93.4921 20.6646 93.8845 20.6646 94.4031V97.496H19.031V88.9743H20.6646Z" fill="#10298E"/>
    <path d="M29.9667 95.5308L31.5941 95.8049C31.3854 96.4013 31.0537 96.8545 30.6037 97.1675C30.152 97.479 29.5867 97.6347 28.9093 97.6347C27.8347 97.6347 27.0405 97.2843 26.525 96.582C26.1186 96.0213 25.9146 95.3128 25.9146 94.4562C25.9146 93.4331 26.1824 92.6311 26.7181 92.0517C27.2523 91.4724 27.9282 91.1827 28.7458 91.1827C29.6646 91.1827 30.3887 91.4864 30.9198 92.0922C31.4508 92.6996 31.7047 93.6277 31.6813 94.8798H27.5887C27.6011 95.3642 27.7319 95.741 27.9842 96.0104C28.2365 96.2799 28.5511 96.4138 28.9264 96.4138C29.1818 96.4138 29.3967 96.3453 29.5711 96.2051C29.7456 96.065 29.8779 95.8407 29.9667 95.5308ZM30.0601 93.88C30.0477 93.4066 29.9262 93.0484 29.6942 92.8024C29.4606 92.5563 29.1787 92.4333 28.8454 92.4333C28.4888 92.4333 28.1945 92.5625 27.9609 92.8226C27.7288 93.0811 27.6151 93.4346 27.6183 93.88H30.0601Z" fill="#10298E"/>
    <path d="M33.0952 88.974H34.7288V90.4846H33.0952V88.974ZM33.0952 91.3224H34.7288V97.4957H33.0952V91.3224Z" fill="#10298E"/>
    <path d="M39.3171 91.3224V92.6244H38.2005V95.113C38.2005 95.616 38.2114 95.9103 38.2332 95.9928L38.378 96.2L38.6552 96.281C38.8063 96.281 39.0243 96.228 39.3108 96.1237L39.451 97.3913C39.071 97.5533 38.6412 97.6343 38.16 97.6343C37.8656 97.6343 37.6009 97.586 37.3642 97.4863C37.1275 97.3882 36.9546 97.2605 36.844 97.1032C36.7335 96.9459 36.6572 96.7341 36.6135 96.4663C36.5793 96.2778 36.5622 95.8932 36.5622 95.3154V92.6244H35.8115V91.3224H36.5622V90.0953L38.2005 89.1422V91.3224H39.3171Z" fill="#10298E"/>
    <path d="M40.5332 88.974H42.1668V97.4957H40.5332V88.974Z" fill="#10298E"/>
    <path d="M43.925 88.974H45.5587V90.4846H43.925V88.974ZM43.925 91.3224H45.5587V97.4957H43.925V91.3224Z" fill="#10298E"/>
    <path d="M52.6973 93.1478L51.087 93.439C51.0325 93.1166 50.9095 92.8752 50.7179 92.7117C50.5264 92.5498 50.2772 92.4672 49.972 92.4672C49.5639 92.4672 49.24 92.6089 48.9971 92.8893C48.7557 93.1696 48.6342 93.6399 48.6342 94.2986C48.6342 95.0306 48.7572 95.5492 49.0033 95.8513C49.2494 96.1534 49.5795 96.3029 49.9938 96.3029C50.3052 96.3029 50.5575 96.2157 50.7553 96.0397C50.9531 95.8638 51.0932 95.5601 51.1742 95.1302L52.7782 95.4028C52.6116 96.1394 52.2924 96.6954 51.8189 97.0707C51.3471 97.4475 50.7132 97.6344 49.919 97.6344C49.0158 97.6344 48.2963 97.3494 47.759 96.781C47.2233 96.211 46.9539 95.423 46.9539 94.4154C46.9539 93.3954 47.2233 92.6027 47.7621 92.0343C48.3009 91.4674 49.0298 91.1824 49.9486 91.1824C50.6992 91.1824 51.2972 91.3444 51.7411 91.6683C52.1849 91.9922 52.5042 92.4844 52.6973 93.1478Z" fill="#10298E"/>
    <path d="M55.6466 88.9743V92.1076C56.1729 91.4909 56.8037 91.1826 57.5356 91.1826C57.9109 91.1826 58.2504 91.2527 58.5525 91.3928C58.8547 91.5314 59.082 91.7105 59.2362 91.927C59.3888 92.1435 59.4932 92.3848 59.5492 92.648C59.6053 92.9112 59.6333 93.3208 59.6333 93.8752V97.496H58.0012V94.2349C58.0012 93.5871 57.9701 93.1775 57.9078 93.0015C57.8455 92.8287 57.7365 92.6901 57.5792 92.5873C57.4219 92.4845 57.2257 92.4331 56.989 92.4331C56.718 92.4331 56.4751 92.4985 56.2633 92.6293C56.0499 92.7617 55.8926 92.9611 55.7945 93.2258C55.6964 93.4921 55.6466 93.8845 55.6466 94.4031V97.496H54.0129V88.9743H55.6466Z" fill="#10298E"/>
    <path d="M64.9483 95.5308L66.5757 95.8049C66.367 96.4013 66.0353 96.8545 65.5853 97.1675C65.1336 97.479 64.5683 97.6347 63.8909 97.6347C62.8163 97.6347 62.0221 97.2843 61.5066 96.582C61.1002 96.0213 60.8977 95.3128 60.8977 94.4562C60.8977 93.4331 61.164 92.6311 61.6997 92.0517C62.2339 91.4724 62.9098 91.1827 63.7274 91.1827C64.6462 91.1827 65.3703 91.4864 65.9014 92.0922C66.4324 92.6996 66.6863 93.6277 66.6629 94.8798H62.5703C62.5827 95.3642 62.7135 95.741 62.9658 96.0104C63.2181 96.2799 63.5327 96.4138 63.908 96.4138C64.1634 96.4138 64.3783 96.3453 64.5527 96.2051C64.7272 96.065 64.8595 95.8407 64.9483 95.5308ZM65.0417 93.88C65.0293 93.4066 64.9078 93.0484 64.6758 92.8024C64.4422 92.5563 64.1603 92.4333 63.827 92.4333C63.4704 92.4333 63.1761 92.5625 62.9425 92.8226C62.7104 93.0811 62.5967 93.4346 62.5999 93.88H65.0417Z" fill="#10298E"/>
    <path d="M69.641 97.4955H68.0073V91.3223H69.5242V92.2006C69.7842 91.7864 70.0178 91.5123 70.225 91.3815C70.4321 91.2491 70.6672 91.1837 70.932 91.1837C71.3042 91.1837 71.6624 91.2865 72.0065 91.4905L71.5004 92.9154C71.2263 92.7363 70.9694 92.6476 70.7342 92.6476C70.5053 92.6476 70.3106 92.7114 70.1518 92.8376C69.9929 92.9621 69.8683 93.1911 69.778 93.5197C69.6861 93.8498 69.641 94.5382 69.641 95.5894V97.4955Z" fill="#10298E"/>
    <path d="M76.196 97.4955V88.9738H82.5141V90.4159H77.9169V92.3049H82.1949V93.7408H77.9169V96.0596H82.6776V97.4955H76.196Z" fill="#10298E"/>
    <path d="M88.2704 97.4955V96.572C88.0462 96.9006 87.7503 97.1607 87.3843 97.3491C87.0183 97.5391 86.6321 97.6357 86.2241 97.6357C85.8099 97.6357 85.4376 97.5438 85.109 97.3616C84.7789 97.1794 84.5406 96.924 84.3942 96.5954C84.2463 96.2652 84.1731 95.8105 84.1731 95.228V91.3223H85.8067V94.1597C85.8067 95.0271 85.8363 95.5582 85.8955 95.7544C85.9562 95.9506 86.0653 96.1048 86.2241 96.2201C86.3829 96.3337 86.5854 96.3914 86.8283 96.3914C87.1087 96.3914 87.3578 96.3151 87.579 96.1624C87.8001 96.0083 87.9512 95.8183 88.0322 95.5924C88.1131 95.3651 88.1536 94.8107 88.1536 93.9261V91.3223H89.7872V97.4955H88.2704Z" fill="#10298E"/>
    <path d="M93.1258 97.4955H91.4922V91.3223H93.009V92.2006C93.2691 91.7864 93.5027 91.5123 93.7098 91.3815C93.9169 91.2491 94.1521 91.1837 94.4168 91.1837C94.789 91.1837 95.1472 91.2865 95.4914 91.4905L94.9853 92.9154C94.7112 92.7363 94.4558 92.6476 94.2191 92.6476C93.9901 92.6476 93.7955 92.7114 93.6366 92.8376C93.4778 92.9621 93.3532 93.1911 93.2629 93.5197C93.171 93.8498 93.1258 94.5382 93.1258 95.5894V97.4955Z" fill="#10298E"/>
    <path d="M95.9004 94.3217C95.9004 93.7797 96.0343 93.2549 96.3022 92.7457C96.5685 92.2396 96.9469 91.8518 97.4375 91.5839C97.928 91.3176 98.4746 91.1837 99.0804 91.1837C100.013 91.1837 100.779 91.4858 101.376 92.0932C101.972 92.699 102.271 93.4652 102.271 94.3918C102.271 95.3246 101.969 96.1002 101.367 96.7137C100.764 97.3273 100.005 97.6341 99.0913 97.6341C98.526 97.6341 97.9856 97.5064 97.4733 97.251C96.9594 96.9956 96.5685 96.6203 96.3022 96.1266C96.0343 95.633 95.9004 95.0303 95.9004 94.3217ZM97.5745 94.4089C97.5745 95.0209 97.7193 95.4897 98.0106 95.8152C98.3018 96.1406 98.66 96.3042 99.0851 96.3042C99.5118 96.3042 99.8685 96.1406 100.158 95.8152C100.446 95.4897 100.591 95.0178 100.591 94.3964C100.591 93.7922 100.446 93.3281 100.158 93.0026C99.8685 92.6772 99.5118 92.5136 99.0851 92.5136C98.66 92.5136 98.3018 92.6772 98.0106 93.0026C97.7193 93.3281 97.5745 93.7969 97.5745 94.4089Z" fill="#10298E"/>
    <path d="M103.448 93.5899H106.656V95.2235H103.448V93.5899Z" fill="#10298E"/>
    <path d="M106.954 97.4955V95.9444L111.43 90.4159H107.46V88.9738H113.697V90.3116L109.03 96.0596H113.876V97.4955H106.954Z" fill="#10298E"/>
    <path d="M116.256 93.2059L114.773 92.938C114.94 92.3416 115.226 91.8993 115.634 91.6127C116.041 91.3262 116.645 91.1829 117.447 91.1829C118.176 91.1829 118.718 91.2686 119.075 91.4414C119.431 91.6143 119.682 91.8339 119.827 92.0986C119.973 92.3649 120.045 92.8524 120.045 93.5594L120.028 95.4671C120.028 96.0106 120.054 96.4093 120.107 96.6663C120.158 96.9248 120.257 97.2004 120.4 97.4963H118.785C118.741 97.3873 118.69 97.2269 118.628 97.0135L118.568 96.822C118.29 97.093 117.992 97.297 117.674 97.4325C117.357 97.5664 117.017 97.6349 116.658 97.6349C116.021 97.6349 115.521 97.4636 115.155 97.1179C114.789 96.7737 114.605 96.3377 114.605 95.8097C114.605 95.4609 114.688 95.151 114.854 94.8769C115.021 94.6044 115.254 94.3941 115.555 94.2493C115.856 94.1045 116.288 93.9768 116.854 93.8693C117.618 93.7245 118.146 93.5921 118.441 93.4675V93.304C118.441 92.991 118.364 92.7667 118.209 92.6328C118.053 92.5004 117.762 92.4334 117.33 92.4334C117.041 92.4334 116.813 92.4895 116.651 92.6048C116.488 92.7184 116.357 92.9193 116.256 93.2059ZM118.441 94.5312C118.232 94.6012 117.9 94.6853 117.447 94.7819C116.994 94.8785 116.698 94.9734 116.558 95.0653C116.345 95.2164 116.239 95.4095 116.239 95.6415C116.239 95.8705 116.324 96.0682 116.494 96.2333C116.665 96.4015 116.882 96.4841 117.145 96.4841C117.439 96.4841 117.721 96.3875 117.987 96.1928C118.185 96.0464 118.316 95.8658 118.377 95.6524C118.42 95.5123 118.441 95.2475 118.441 94.8566V94.5312Z" fill="#10298E"/>
    <path d="M123.367 88.9743V92.1076C123.893 91.4909 124.522 91.1826 125.256 91.1826C125.631 91.1826 125.971 91.2527 126.273 91.3928C126.575 91.5314 126.802 91.7105 126.956 91.927C127.109 92.1435 127.213 92.3848 127.269 92.648C127.326 92.9112 127.354 93.3208 127.354 93.8752V97.496H125.72V94.2349C125.72 93.5871 125.689 93.1775 125.628 93.0015C125.566 92.8287 125.457 92.6901 125.299 92.5873C125.142 92.4845 124.946 92.4331 124.709 92.4331C124.438 92.4331 124.195 92.4985 123.982 92.6293C123.77 92.7617 123.613 92.9611 123.515 93.2258C123.415 93.4921 123.367 93.8845 123.367 94.4031V97.496H121.733V88.9743H123.367Z" fill="#10298E"/>
    <path d="M129.094 88.974H130.727V97.4957H129.094V88.974Z" fill="#10298E"/>
    <path d="M136.547 97.4955V96.572C136.323 96.9006 136.027 97.1607 135.661 97.3491C135.295 97.5391 134.907 97.6357 134.501 97.6357C134.087 97.6357 133.715 97.5438 133.386 97.3616C133.056 97.1794 132.817 96.924 132.67 96.5954C132.523 96.2652 132.45 95.8105 132.45 95.228V91.3223H134.082V94.1597C134.082 95.0271 134.113 95.5582 134.172 95.7544C134.232 95.9506 134.342 96.1048 134.501 96.2201C134.66 96.3337 134.862 96.3914 135.105 96.3914C135.384 96.3914 135.635 96.3151 135.856 96.1624C136.077 96.0083 136.226 95.8183 136.309 95.5924C136.39 95.3651 136.43 94.8107 136.43 93.9261V91.3223H138.064V97.4955H136.547Z" fill="#10298E"/>
    <path d="M145.454 97.4955H143.821V94.3451C143.821 93.6785 143.787 93.2471 143.717 93.0509C143.646 92.8563 143.533 92.7052 143.375 92.5962C143.22 92.4872 143.03 92.4327 142.81 92.4327C142.527 92.4327 142.273 92.5105 142.047 92.6663C141.823 92.8204 141.67 93.026 141.586 93.2814C141.502 93.5368 141.462 94.0102 141.462 94.6986V97.4955H139.828V91.3223H141.345V92.2287C141.884 91.5325 142.561 91.1837 143.379 91.1837C143.74 91.1837 144.068 91.2475 144.367 91.3784C144.665 91.5076 144.891 91.6742 145.045 91.8751C145.198 92.076 145.303 92.305 145.364 92.5604C145.423 92.8158 145.454 93.1833 145.454 93.6598V97.4955Z" fill="#10298E"/>
    <path d="M147.043 97.9023L148.909 98.1297C148.94 98.3461 149.012 98.4956 149.124 98.5766C149.278 98.6934 149.522 98.751 149.856 98.751C150.282 98.751 150.602 98.6872 150.815 98.5579C150.958 98.4738 151.067 98.3368 151.14 98.1468C151.19 98.0113 151.215 97.7606 151.215 97.3962V96.496C150.728 97.1626 150.113 97.4958 149.368 97.4958C148.538 97.4958 147.881 97.1454 147.397 96.4431C147.018 95.8902 146.828 95.2003 146.828 94.3734C146.828 93.3393 147.076 92.5498 147.574 92.0016C148.072 91.4565 148.691 91.1824 149.432 91.1824C150.195 91.1824 150.826 91.5188 151.321 92.1885V91.3226H152.849V96.862C152.849 97.5893 152.79 98.1343 152.67 98.4956C152.548 98.8554 152.38 99.1388 152.164 99.3444C151.947 99.5499 151.656 99.7103 151.295 99.8271C150.932 99.9424 150.474 100 149.919 100C148.873 100 148.132 99.8209 147.694 99.4627C147.255 99.1045 147.037 98.6498 147.037 98.1001L147.043 97.9023ZM148.502 94.28C148.502 94.9356 148.628 95.4152 148.882 95.7205C149.136 96.0242 149.449 96.1768 149.821 96.1768C150.22 96.1768 150.556 96.0195 150.832 95.708C151.108 95.3966 151.245 94.934 151.245 94.322C151.245 93.6819 151.114 93.2085 150.849 92.8986C150.586 92.5887 150.253 92.433 149.849 92.433C149.458 92.433 149.136 92.5856 148.882 92.8893C148.628 93.1929 148.502 93.657 148.502 94.28Z" fill="#10298E"/>
    <path d="M153.973 95.7346L155.613 95.4839C155.682 95.8016 155.823 96.043 156.037 96.2081C156.25 96.3732 156.547 96.4557 156.932 96.4557C157.354 96.4557 157.672 96.3778 157.885 96.2236C158.028 96.1146 158.1 95.9682 158.1 95.786L157.983 95.4792C157.902 95.4014 157.72 95.3297 157.437 95.2628C156.121 94.9731 155.284 94.7084 154.932 94.467C154.445 94.1337 154.199 93.6712 154.199 93.0778C154.199 92.5437 154.411 92.0936 154.833 91.7292C155.256 91.3648 155.91 91.1826 156.798 91.1826C157.642 91.1826 158.271 91.3212 158.681 91.5968C159.092 91.8709 159.376 92.2774 159.53 92.8162L157.989 93.1012C157.924 92.8614 157.798 92.6761 157.614 92.5499C157.43 92.4207 157.167 92.3568 156.826 92.3568C156.398 92.3568 156.09 92.4175 155.903 92.5375L155.717 92.8692L155.879 93.1651C156.027 93.2741 156.535 93.4267 157.405 93.6245C158.274 93.8223 158.883 94.0652 159.228 94.3502C159.569 94.6414 159.74 95.0463 159.74 95.5649C159.74 96.1318 159.503 96.6177 159.03 97.0241C158.558 97.4321 157.857 97.6346 156.932 97.6346C156.091 97.6346 155.426 97.4648 154.936 97.1238C154.445 96.7827 154.124 96.3202 153.973 95.7346Z" fill="#10298E"/>
    <path d="M162.949 97.4955L160.462 91.3223H162.177L163.339 94.4727L163.677 95.5255C163.765 95.2576 163.822 95.0816 163.845 94.996C163.899 94.8216 163.957 94.6472 164.019 94.4727L165.194 91.3223H166.874L164.421 97.4955H162.949Z" fill="#10298E"/>
    <path d="M171.531 95.5308L173.158 95.8049C172.95 96.4013 172.618 96.8545 172.168 97.1675C171.716 97.479 171.151 97.6347 170.474 97.6347C169.399 97.6347 168.605 97.2843 168.089 96.582C167.683 96.0213 167.48 95.3128 167.48 94.4562C167.48 93.4331 167.747 92.6311 168.281 92.0517C168.817 91.4724 169.493 91.1827 170.31 91.1827C171.229 91.1827 171.953 91.4864 172.484 92.0922C173.015 92.6996 173.269 93.6277 173.246 94.8798H169.155C169.165 95.3642 169.296 95.741 169.549 96.0104C169.801 96.2799 170.115 96.4138 170.491 96.4138C170.746 96.4138 170.961 96.3453 171.136 96.2051C171.31 96.065 171.442 95.8407 171.531 95.5308ZM171.625 93.88C171.612 93.4066 171.491 93.0484 171.257 92.8024C171.025 92.5563 170.743 92.4333 170.41 92.4333C170.053 92.4333 169.759 92.5625 169.527 92.8226C169.293 93.0811 169.179 93.4346 169.183 93.88H171.625Z" fill="#10298E"/>
    <path d="M176.224 97.4955H174.59V91.3223H176.107V92.2006C176.367 91.7864 176.601 91.5123 176.808 91.3815C177.015 91.2491 177.25 91.1837 177.513 91.1837C177.885 91.1837 178.245 91.2865 178.589 91.4905L178.083 92.9154C177.809 92.7363 177.552 92.6476 177.317 92.6476C177.088 92.6476 176.893 92.7114 176.735 92.8376C176.576 92.9621 176.451 93.1911 176.361 93.5197C176.269 93.8498 176.224 94.5382 176.224 95.5894V97.4955Z" fill="#10298E"/>
    <path d="M179.317 97.4955V88.9738H180.951V93.4963L182.863 91.3223H184.874L182.765 93.5773L185.027 97.4955H183.265L181.713 94.7219L180.951 95.5193V97.4955H179.317Z" fill="#10298E"/>
    <path d="M189.654 95.5308L191.282 95.8049C191.073 96.4013 190.743 96.8545 190.291 97.1675C189.838 97.479 189.274 97.6347 188.597 97.6347C187.522 97.6347 186.728 97.2843 186.213 96.582C185.806 96.0213 185.602 95.3128 185.602 94.4562C185.602 93.4331 185.87 92.6311 186.406 92.0517C186.94 91.4724 187.616 91.1827 188.434 91.1827C189.352 91.1827 190.076 91.4864 190.608 92.0922C191.139 92.6996 191.392 93.6277 191.369 94.8798H187.276C187.289 95.3642 187.421 95.741 187.672 96.0104C187.924 96.2799 188.237 96.4138 188.614 96.4138C188.87 96.4138 189.084 96.3453 189.259 96.2051C189.433 96.065 189.566 95.8407 189.654 95.5308ZM189.748 93.88C189.735 93.4066 189.614 93.0484 189.382 92.8024C189.15 92.5563 188.865 92.4333 188.532 92.4333C188.175 92.4333 187.881 92.5625 187.649 92.8226C187.417 93.0811 187.303 93.4346 187.306 93.88H189.748Z" fill="#10298E"/>
    <path d="M194.411 88.9743V92.1076C194.938 91.4909 195.567 91.1826 196.3 91.1826C196.676 91.1826 197.015 91.2527 197.317 91.3928C197.62 91.5314 197.847 91.7105 198.001 91.927C198.154 92.1435 198.258 92.3848 198.314 92.648C198.37 92.9112 198.398 93.3208 198.398 93.8752V97.496H196.765V94.2349C196.765 93.5871 196.733 93.1775 196.673 93.0015C196.61 92.8287 196.501 92.6901 196.344 92.5873C196.187 92.4845 195.991 92.4331 195.754 92.4331C195.483 92.4331 195.24 92.4985 195.027 92.6293C194.815 92.7617 194.658 92.9611 194.559 93.2258C194.46 93.4921 194.411 93.8845 194.411 94.4031V97.496H192.778V88.9743H194.411Z" fill="#10298E"/>
    <path d="M201.702 97.4955H200.068V91.3223H201.585V92.2006C201.845 91.7864 202.079 91.5123 202.286 91.3815C202.493 91.2491 202.728 91.1837 202.993 91.1837C203.363 91.1837 203.722 91.2865 204.067 91.4905L203.561 92.9154C203.287 92.7363 203.03 92.6476 202.795 92.6476C202.566 92.6476 202.371 92.7114 202.213 92.8376C202.054 92.9621 201.929 93.1911 201.839 93.5197C201.747 93.8498 201.702 94.5382 201.702 95.5894V97.4955Z" fill="#10298E"/>
    <path d="M204.279 95.7346L205.917 95.4839C205.987 95.8016 206.129 96.043 206.342 96.2081C206.556 96.3732 206.853 96.4557 207.238 96.4557C207.66 96.4557 207.977 96.3778 208.191 96.2236C208.334 96.1146 208.406 95.9682 208.406 95.786L208.289 95.4792C208.208 95.4014 208.026 95.3297 207.742 95.2628C206.425 94.9731 205.59 94.7084 205.238 94.467C204.751 94.1337 204.505 93.6712 204.505 93.0778C204.505 92.5437 204.716 92.0936 205.138 91.7292C205.562 91.3648 206.216 91.1826 207.104 91.1826C207.948 91.1826 208.575 91.3212 208.987 91.5968C209.398 91.8709 209.681 92.2774 209.835 92.8162L208.295 93.1012C208.23 92.8614 208.104 92.6761 207.92 92.5499C207.736 92.4207 207.473 92.3568 207.132 92.3568C206.704 92.3568 206.395 92.4175 206.208 92.5375L206.023 92.8692L206.185 93.1651C206.333 93.2741 206.841 93.4267 207.711 93.6245C208.58 93.8223 209.189 94.0652 209.533 94.3502C209.874 94.6414 210.046 95.0463 210.046 95.5649C210.046 96.1318 209.809 96.6177 209.335 97.0241C208.864 97.4321 208.163 97.6346 207.238 97.6346C206.395 97.6346 205.732 97.4648 205.241 97.1238C204.751 96.7827 204.43 96.3202 204.279 95.7346Z" fill="#10298E"/>
    <path d="M213.121 97.4955H211.488V91.3223H213.005V92.2006C213.265 91.7864 213.498 91.5123 213.705 91.3815C213.913 91.2491 214.148 91.1837 214.412 91.1837C214.785 91.1837 215.143 91.2865 215.487 91.4905L214.981 92.9154C214.707 92.7363 214.451 92.6476 214.215 92.6476C213.986 92.6476 213.793 92.7114 213.632 92.8376C213.475 92.9621 213.349 93.1911 213.258 93.5197C213.167 93.8498 213.121 94.5382 213.121 95.5894V97.4955Z" fill="#10298E"/>
    <path d="M217.494 93.2059L216.011 92.938C216.18 92.3416 216.466 91.8993 216.873 91.6127C217.279 91.3262 217.883 91.1829 218.685 91.1829C219.414 91.1829 219.958 91.2686 220.313 91.4414C220.669 91.6143 220.922 91.8339 221.067 92.0986C221.211 92.3649 221.283 92.8524 221.283 93.5594L221.266 95.4671C221.266 96.0106 221.292 96.4093 221.345 96.6663C221.398 96.9248 221.495 97.2004 221.638 97.4963H220.023C219.98 97.3873 219.928 97.2269 219.866 97.0135L219.808 96.822C219.529 97.093 219.23 97.297 218.913 97.4325C218.595 97.5664 218.256 97.6349 217.896 97.6349C217.26 97.6349 216.759 97.4636 216.393 97.1179C216.027 96.7737 215.843 96.3377 215.843 95.8097C215.843 95.4609 215.927 95.151 216.094 94.8769C216.261 94.6044 216.493 94.3941 216.795 94.2493C217.094 94.1045 217.527 93.9768 218.094 93.8693C218.857 93.7245 219.385 93.5921 219.679 93.4675V93.304C219.679 92.991 219.603 92.7667 219.447 92.6328C219.293 92.5004 219 92.4334 218.57 92.4334C218.279 92.4334 218.052 92.4895 217.89 92.6048C217.726 92.7184 217.595 92.9193 217.494 93.2059ZM219.679 94.5312C219.47 94.6012 219.139 94.6853 218.685 94.7819C218.232 94.8785 217.936 94.9734 217.796 95.0653C217.584 95.2164 217.477 95.4095 217.477 95.6415C217.477 95.8705 217.563 96.0682 217.732 96.2333C217.904 96.4015 218.12 96.4841 218.383 96.4841C218.678 96.4841 218.959 96.3875 219.227 96.1928C219.424 96.0464 219.554 95.8658 219.617 95.6524C219.659 95.5123 219.679 95.2475 219.679 94.8566V94.5312Z" fill="#10298E"/>
    <path d="M227.041 97.4955V96.572C226.816 96.9006 226.52 97.1607 226.154 97.3491C225.788 97.5391 225.402 97.6357 224.994 97.6357C224.58 97.6357 224.208 97.5438 223.879 97.3616C223.549 97.1794 223.311 96.924 223.164 96.5954C223.016 96.2652 222.942 95.8105 222.942 95.228V91.3223H224.575V94.1597C224.575 95.0271 224.605 95.5582 224.666 95.7544C224.726 95.9506 224.835 96.1048 224.994 96.2201C225.153 96.3337 225.356 96.3914 225.598 96.3914C225.879 96.3914 226.128 96.3151 226.349 96.1624C226.569 96.0083 226.721 95.8183 226.802 95.5924C226.883 95.3651 226.924 94.8107 226.924 93.9261V91.3223H228.557V97.4955H227.041Z" fill="#10298E"/>
    <path d="M230.21 91.3224H231.715V92.165C232.255 91.5109 232.895 91.1823 233.639 91.1823C234.035 91.1823 234.378 91.2648 234.667 91.4268C234.96 91.5903 235.197 91.8364 235.384 92.165C235.655 91.8364 235.947 91.5903 236.262 91.4268C236.575 91.2648 236.91 91.1823 237.266 91.1823C237.72 91.1823 238.103 91.2757 238.417 91.4595C238.732 91.6433 238.965 91.9142 239.121 92.2708C239.233 92.534 239.289 92.9607 239.289 93.5494V97.4957H237.656V93.9683C237.656 93.3548 237.6 92.9607 237.488 92.7817C237.337 92.5496 237.104 92.4328 236.79 92.4328C236.561 92.4328 236.346 92.5029 236.145 92.6431C235.944 92.7817 235.798 92.9857 235.709 93.2551C235.62 93.5245 235.575 93.9496 235.575 94.5305V97.4957H233.942V94.1132C233.942 93.512 233.914 93.1243 233.854 92.9499C233.797 92.7754 233.706 92.6462 233.585 92.5605C233.462 92.4764 233.297 92.4328 233.087 92.4328C232.836 92.4328 232.609 92.4998 232.408 92.6368C232.205 92.7723 232.062 92.9685 231.975 93.2239C231.887 93.4793 231.844 93.9029 231.844 94.4963V97.4957H230.21V91.3224Z" fill="#10298E"/>
    <path d="M0.0744629 78.4133L2.53036 78.175C2.67675 78.9988 2.97732 79.6031 3.42894 79.9909C3.88056 80.3771 4.49103 80.5702 5.25724 80.5702C6.07016 80.5702 6.68219 80.3973 7.09488 80.0547C7.50601 79.7105 7.71314 79.3088 7.71314 78.8478C7.71314 78.5535 7.62593 78.3012 7.45307 78.0925C7.27865 77.8869 6.97652 77.7063 6.54515 77.5521C6.24925 77.4493 5.57649 77.2671 4.52374 77.007C3.17198 76.6706 2.22201 76.2595 1.67695 75.7705C0.909189 75.0837 0.526087 74.2443 0.526087 73.2554C0.526087 72.62 0.706737 72.0236 1.06804 71.4707C1.42778 70.9148 1.94792 70.4943 2.62847 70.2031C3.30591 69.9134 4.12662 69.7686 5.08749 69.7686C6.65572 69.7686 7.83617 70.1128 8.62885 70.8011C9.42152 71.4879 9.83889 72.4067 9.87782 73.5544L7.35495 73.665C7.24594 73.0218 7.01546 72.5609 6.66039 72.279C6.30532 71.9987 5.77116 71.857 5.06102 71.857C4.32907 71.857 3.75442 72.008 3.34017 72.3101C3.07231 72.5017 2.93838 72.7618 2.93838 73.0857C2.93838 73.38 3.06297 73.6339 3.3137 73.8441C3.63139 74.112 4.40538 74.3892 5.63255 74.6788C6.85973 74.9685 7.76765 75.2691 8.35631 75.579C8.94498 75.8889 9.40439 76.3125 9.73766 76.8482C10.0694 77.387 10.236 78.0504 10.236 78.84C10.236 79.5564 10.0367 80.226 9.63955 80.8521C9.24087 81.4766 8.67868 81.9406 7.95141 82.2459C7.22414 82.5496 6.31778 82.7022 5.23232 82.7022C3.65164 82.7022 2.43848 82.3362 1.5913 81.6058C0.744112 80.8754 0.239539 79.8118 0.0744629 78.4133Z" fill="#10298E"/>
    <path d="M12.8657 69.9824H15.2609V72.1985H12.8657V69.9824ZM12.8657 73.4257H15.2609V82.4799H12.8657V73.4257Z" fill="#10298E"/>
    <path d="M26.4752 82.4798H24.08V77.8592C24.08 76.8812 24.0286 76.2489 23.9258 75.9624C23.8246 75.6758 23.658 75.4516 23.4275 75.2927C23.197 75.1339 22.9198 75.0545 22.5959 75.0545C22.1816 75.0545 21.8094 75.1682 21.4793 75.3955C21.1491 75.6229 20.9233 75.9235 20.8018 76.2988C20.6788 76.6741 20.6181 77.3671 20.6181 78.3794V82.4798H18.2229V73.4255H20.4483V74.7555C21.2379 73.7323 22.233 73.2215 23.4322 73.2215C23.9601 73.2215 24.4429 73.3165 24.8805 73.5065C25.3181 73.698 25.6498 73.941 25.874 74.2353C26.0983 74.5312 26.254 74.8676 26.3428 75.2413C26.4316 75.6167 26.4752 76.1539 26.4752 76.8532V82.4798Z" fill="#10298E"/>
    <path d="M29.207 83.0766L31.9432 83.4098C31.9884 83.7275 32.0943 83.9455 32.2594 84.0654C32.4867 84.2368 32.8434 84.3209 33.3339 84.3209C33.9584 84.3209 34.4272 84.2274 34.7402 84.0405C34.9504 83.9144 35.1093 83.7135 35.2167 83.4347C35.2899 83.2354 35.3273 82.8694 35.3273 82.3353V81.0131C34.6125 81.9911 33.7077 82.4801 32.6175 82.4801C31.4013 82.4801 30.4373 81.9646 29.7272 80.9368C29.1696 80.1239 28.8909 79.1132 28.8909 77.9016C28.8909 76.3847 29.2568 75.2245 29.9872 74.4241C30.7176 73.622 31.6255 73.2218 32.711 73.2218C33.8307 73.2218 34.7542 73.7124 35.4815 74.6966V73.4258H37.724V81.5504C37.724 82.6187 37.6352 83.4176 37.4593 83.9455C37.2833 84.475 37.0357 84.8893 36.718 85.1914C36.3987 85.492 35.9736 85.7271 35.4425 85.8984C34.9115 86.0682 34.2387 86.1538 33.4274 86.1538C31.8918 86.1538 30.8033 85.8906 30.1616 85.3658C29.52 84.8394 29.1992 84.1729 29.1992 83.3662L29.207 83.0766ZM31.3468 77.7661C31.3468 78.7254 31.5321 79.4293 31.9058 79.8763C32.2765 80.3216 32.7359 80.5443 33.2825 80.5443C33.8665 80.5443 34.3617 80.3154 34.7651 79.8591C35.1684 79.4013 35.3709 78.7238 35.3709 77.8253C35.3709 76.8877 35.1778 76.1916 34.7916 75.7369C34.4038 75.2821 33.9148 75.0548 33.3246 75.0548C32.7499 75.0548 32.2765 75.2775 31.9058 75.7229C31.5321 76.1698 31.3468 76.8504 31.3468 77.7661Z" fill="#10298E"/>
    <path d="M40.6172 69.9824H43.0124V82.4799H40.6172V69.9824Z" fill="#10298E"/>
    <path d="M51.2346 79.5983L53.622 79.9985C53.3152 80.8737 52.8293 81.5403 52.1675 81.9981C51.5056 82.456 50.6771 82.6849 49.6836 82.6849C48.1091 82.6849 46.9442 82.1694 46.1874 81.1416C45.5909 80.3178 45.2935 79.2775 45.2935 78.0207C45.2935 76.521 45.6843 75.3452 46.4692 74.4949C47.2541 73.6462 48.2446 73.221 49.4437 73.221C50.7908 73.221 51.8545 73.6664 52.6331 74.5557C53.4118 75.4449 53.784 76.8076 53.7497 78.6436H47.7478C47.7649 79.3538 47.958 79.9066 48.3271 80.3022C48.6962 80.6962 49.1572 80.894 49.7085 80.894C50.0838 80.894 50.3999 80.7912 50.6553 80.5872C50.9107 80.3832 51.1038 80.053 51.2346 79.5983ZM51.3717 77.1766C51.3546 76.4836 51.1755 75.9557 50.8344 75.596C50.4934 75.2347 50.0776 75.054 49.5886 75.054C49.0669 75.054 48.6339 75.2456 48.2929 75.6255C47.9518 76.0055 47.7852 76.5241 47.7898 77.1766H51.3717Z" fill="#10298E"/>
    <path d="M61.6174 82.4798V69.9823H70.8835V72.0956H64.1403V74.8676H70.4148V76.9731H64.1403V80.3743H71.1233V82.4798H61.6174Z" fill="#10298E"/>
    <path d="M79.728 82.4798V81.1249C79.3978 81.6077 78.9649 81.9877 78.4276 82.2664C77.8903 82.5452 77.3235 82.6838 76.727 82.6838C76.1181 82.6838 75.573 82.5514 75.0903 82.2836C74.6075 82.0157 74.2571 81.6419 74.0422 81.1576C73.8257 80.6749 73.7183 80.0068 73.7183 79.1549V73.4255H76.1134V77.5867C76.1134 78.859 76.157 79.6392 76.2458 79.9273C76.333 80.2139 76.4934 80.4413 76.727 80.6095C76.9606 80.7761 77.2565 80.8602 77.6131 80.8602C78.0227 80.8602 78.3902 80.748 78.7142 80.5238C79.0381 80.2995 79.2592 80.0192 79.3791 79.6875C79.4975 79.3542 79.5582 78.5413 79.5582 77.2456V73.4255H81.9534V82.4798H79.728Z" fill="#10298E"/>
    <path d="M87.2509 82.4798H84.8557V73.4255H87.0811V74.7134C87.4611 74.1045 87.8037 73.7043 88.1074 73.5112C88.4111 73.3181 88.7568 73.2215 89.143 73.2215C89.6896 73.2215 90.2145 73.3726 90.7206 73.6731L89.9793 75.7615C89.5744 75.5014 89.2006 75.3706 88.8534 75.3706C88.5185 75.3706 88.2335 75.4625 88.0015 75.6478C87.7679 75.8316 87.5841 76.1664 87.4518 76.6492C87.3178 77.1319 87.2509 78.1442 87.2509 79.6828V82.4798Z" fill="#10298E"/>
    <path d="M91.7222 77.8251C91.7222 77.0293 91.9184 76.26 92.3108 75.5156C92.7033 74.7696 93.2577 74.2012 93.9772 73.8103C94.6951 73.4179 95.4987 73.2216 96.3848 73.2216C97.7552 73.2216 98.8781 73.667 99.7533 74.5563C100.627 75.4455 101.066 76.5683 101.066 77.9279C101.066 79.2968 100.624 80.4321 99.7393 81.3322C98.8563 82.2339 97.7443 82.6839 96.4019 82.6839C95.5719 82.6839 94.7808 82.4971 94.0286 82.1218C93.2748 81.7464 92.7033 81.1967 92.3108 80.4726C91.9184 79.7468 91.7222 78.8654 91.7222 77.8251ZM94.1781 77.9528C94.1781 78.8514 94.3899 79.5382 94.8166 80.0163C95.2433 80.4928 95.7681 80.7326 96.3941 80.7326C97.0186 80.7326 97.5435 80.4928 97.967 80.0163C98.3891 79.5382 98.6024 78.8452 98.6024 77.9357C98.6024 77.0496 98.3891 76.3674 97.967 75.8893C97.5435 75.4128 97.0186 75.1745 96.3941 75.1745C95.7681 75.1745 95.2433 75.4128 94.8166 75.8893C94.3899 76.3674 94.1781 77.0542 94.1781 77.9528Z" fill="#10298E"/>
    <path d="M108.856 82.4798V69.9823H112.905C114.441 69.9823 115.44 70.0446 115.906 70.1691C116.622 70.3576 117.222 70.7656 117.705 71.3932C118.187 72.0208 118.429 72.8322 118.429 73.8273C118.429 74.5935 118.29 75.2382 118.011 75.7615C117.733 76.2848 117.379 76.6959 116.951 76.9949C116.521 77.2923 116.085 77.4901 115.641 77.5867C115.04 77.705 114.166 77.7658 113.025 77.7658H111.379V82.4798H108.856ZM111.379 72.0956V75.6431H112.76C113.755 75.6431 114.42 75.5777 114.755 75.4469C115.09 75.3161 115.353 75.1105 115.543 74.8333C115.735 74.5546 115.83 74.2307 115.83 73.8616C115.83 73.4068 115.696 73.0315 115.429 72.7356C115.162 72.4397 114.824 72.2544 114.414 72.1812C114.113 72.1251 113.508 72.0956 112.598 72.0956H111.379Z" fill="#10298E"/>
    <path d="M122.798 76.1884L120.626 75.7959C120.868 74.9207 121.291 74.2728 121.887 73.8524C122.483 73.4319 123.37 73.2216 124.547 73.2216C125.614 73.2216 126.409 73.3478 126.933 73.6016C127.456 73.8539 127.823 74.1747 128.037 74.5641C128.25 74.9534 128.356 75.6682 128.356 76.7085L128.331 79.5039C128.331 80.3012 128.37 80.8868 128.446 81.2652C128.523 81.6421 128.666 82.0486 128.878 82.4799H126.508C126.444 82.3211 126.367 82.0844 126.276 81.7729C126.237 81.6312 126.209 81.5362 126.191 81.491C125.782 81.8882 125.344 82.1872 124.879 82.3865C124.413 82.5858 123.916 82.6839 123.387 82.6839C122.454 82.6839 121.72 82.4317 121.183 81.9255C120.646 81.4194 120.378 80.7809 120.378 80.0069C120.378 79.4961 120.499 79.0398 120.744 78.6396C120.987 78.2394 121.329 77.9326 121.772 77.7176C122.211 77.5058 122.846 77.319 123.676 77.1601C124.796 76.9499 125.572 76.7537 126.003 76.5715V76.3332C126.003 75.8722 125.891 75.5452 125.662 75.349C125.435 75.1527 125.006 75.0546 124.376 75.0546C123.949 75.0546 123.616 75.1387 123.377 75.3069C123.139 75.4735 122.946 75.7679 122.798 76.1884ZM126.003 78.1319C125.696 78.2347 125.212 78.3562 124.547 78.4994C123.882 78.6411 123.446 78.7797 123.242 78.9168C122.929 79.1379 122.773 79.4198 122.773 79.7609C122.773 80.0957 122.898 80.3853 123.148 80.6298C123.398 80.8743 123.715 80.9958 124.103 80.9958C124.534 80.9958 124.946 80.8541 125.338 80.5707C125.628 80.3542 125.819 80.0895 125.911 79.778C125.972 79.5724 126.003 79.1831 126.003 78.61V78.1319Z" fill="#10298E"/>
    <path d="M130.108 73.4263H132.657L134.823 79.8549L136.937 73.4263H139.418L136.22 82.1395L135.649 83.7155C135.439 84.245 135.238 84.6484 135.049 84.9271C134.858 85.2044 134.64 85.4317 134.392 85.6046C134.144 85.7774 133.841 85.9129 133.48 86.0095C133.118 86.106 132.712 86.1543 132.255 86.1543C131.796 86.1543 131.344 86.106 130.902 86.0095L130.687 84.1345C131.063 84.2077 131.4 84.245 131.703 84.245C132.259 84.245 132.671 84.0815 132.938 83.7545C133.205 83.4274 133.409 83.0116 133.553 82.5055L130.108 73.4263Z" fill="#10298E"/>
    <path d="M141.296 73.4263H143.505V74.6628C144.294 73.7019 145.235 73.2223 146.327 73.2223C146.906 73.2223 147.409 73.3406 147.836 73.5789C148.261 73.8187 148.611 74.18 148.884 74.6628C149.281 74.18 149.711 73.8187 150.172 73.5789C150.631 73.3406 151.123 73.2223 151.646 73.2223C152.311 73.2223 152.874 73.3562 153.333 73.6256C153.794 73.8966 154.138 74.2922 154.365 74.8154C154.529 75.2032 154.613 75.8277 154.613 76.692V82.4806H152.216V77.3056C152.216 76.407 152.135 75.8277 151.97 75.5661C151.748 75.225 151.407 75.0553 150.947 75.0553C150.611 75.0553 150.296 75.1565 150 75.3621C149.704 75.5661 149.493 75.8666 149.362 76.2606C149.229 76.6562 149.166 77.2791 149.166 78.1325V82.4806H146.769V77.5189C146.769 76.6375 146.727 76.0691 146.641 75.8137C146.557 75.5583 146.425 75.3667 146.246 75.2421C146.066 75.1176 145.824 75.0553 145.517 75.0553C145.146 75.0553 144.814 75.1534 144.518 75.3527C144.224 75.552 144.011 75.8386 143.885 76.2139C143.755 76.5892 143.692 77.2122 143.692 78.0811V82.4806H141.296V73.4263Z" fill="#10298E"/>
    <path d="M162.766 79.5983L165.154 79.9985C164.847 80.8737 164.361 81.5403 163.699 81.9981C163.037 82.456 162.209 82.6849 161.215 82.6849C159.639 82.6849 158.476 82.1694 157.719 81.1416C157.123 80.3178 156.824 79.2775 156.824 78.0207C156.824 76.521 157.216 75.3452 158.001 74.4949C158.786 73.6462 159.776 73.221 160.976 73.221C162.323 73.221 163.386 73.6664 164.165 74.5557C164.942 75.4449 165.316 76.8076 165.282 78.6436H159.28C159.297 79.3538 159.49 79.9066 159.859 80.3022C160.23 80.6962 160.689 80.894 161.24 80.894C161.616 80.894 161.932 80.7912 162.187 80.5872C162.443 80.3832 162.636 80.053 162.766 79.5983ZM162.904 77.1766C162.886 76.4836 162.707 75.9557 162.366 75.596C162.025 75.2347 161.609 75.054 161.12 75.054C160.599 75.054 160.166 75.2456 159.825 75.6255C159.484 76.0055 159.315 76.5241 159.322 77.1766H162.904Z" fill="#10298E"/>
    <path d="M175.992 82.4798H173.597V77.8592C173.597 76.8812 173.546 76.2489 173.443 75.9624C173.34 75.6758 173.175 75.4516 172.945 75.2927C172.714 75.1339 172.437 75.0545 172.113 75.0545C171.699 75.0545 171.327 75.1682 170.997 75.3955C170.666 75.6229 170.441 75.9235 170.319 76.2988C170.198 76.6741 170.135 77.3671 170.135 78.3794V82.4798H167.74V73.4255H169.966V74.7555C170.755 73.7323 171.75 73.2215 172.949 73.2215C173.477 73.2215 173.96 73.3165 174.398 73.5065C174.835 73.698 175.166 73.941 175.391 74.2353C175.616 74.5312 175.773 74.8676 175.86 75.2413C175.949 75.6167 175.992 76.1539 175.992 76.8532V82.4798Z" fill="#10298E"/>
    <path d="M183.098 73.4263V75.3356H181.461V78.9844C181.461 79.7225 181.477 80.1539 181.508 80.2754L181.721 80.5791C181.832 80.6585 181.966 80.6974 182.126 80.6974C182.347 80.6974 182.668 80.6211 183.088 80.4685L183.292 82.3264C182.736 82.5647 182.106 82.6846 181.4 82.6846C180.969 82.6846 180.58 82.6114 180.234 82.4681C179.887 82.3217 179.633 82.1348 179.471 81.9044C179.309 81.6739 179.195 81.3624 179.133 80.9715C179.081 80.6928 179.057 80.1306 179.057 79.2834V75.3356H177.957V73.4263H179.057V71.6276L181.461 70.2291V73.4263H183.098Z" fill="#10298E"/>
    <path d="M184.44 79.8967L186.845 79.5307C186.946 79.9963 187.153 80.3499 187.466 80.5912C187.779 80.8326 188.217 80.9541 188.779 80.9541C189.399 80.9541 189.864 80.8404 190.177 80.613C190.388 80.4542 190.494 80.2408 190.494 79.973C190.494 79.7908 190.436 79.6413 190.322 79.5214C190.204 79.4077 189.934 79.3033 189.522 79.2068C187.588 78.7801 186.363 78.3907 185.846 78.0388C185.13 77.5498 184.772 76.8708 184.772 76.0003C184.772 75.2169 185.082 74.5566 185.702 74.0224C186.32 73.4883 187.281 73.222 188.584 73.222C189.822 73.222 190.743 73.4229 191.345 73.8262C191.947 74.2311 192.362 74.8276 192.59 75.6172L190.33 76.0345C190.233 75.6826 190.051 75.4131 189.78 75.2247C189.511 75.0378 189.126 74.9444 188.625 74.9444C187.994 74.9444 187.544 75.0316 187.27 75.2076C187.088 75.3322 186.997 75.4941 186.997 75.6935C186.997 75.8648 187.077 76.0096 187.237 76.128C187.452 76.2868 188.198 76.5126 189.473 76.8023C190.749 77.0919 191.64 77.447 192.147 77.8675C192.646 78.2942 192.896 78.8875 192.896 79.6491C192.896 80.4791 192.551 81.1924 191.858 81.7888C191.163 82.3853 190.137 82.6843 188.779 82.6843C187.545 82.6843 186.571 82.4336 185.851 81.9337C185.132 81.4338 184.661 80.7548 184.44 79.8967Z" fill="#10298E"/>
    <path d="M211.531 82.4798H208.785L207.695 79.6408H202.699L201.667 82.4798H198.991L203.858 69.9823H206.527L211.531 82.4798ZM206.886 77.5353L205.163 72.8976L203.475 77.5353H206.886Z" fill="#10298E"/>
    <path d="M215.67 82.4798H213.274V73.4255H215.5V74.7134C215.88 74.1045 216.222 73.7043 216.526 73.5112C216.83 73.3181 217.176 73.2215 217.562 73.2215C218.108 73.2215 218.633 73.3726 219.139 73.6731L218.398 75.7615C217.993 75.5014 217.619 75.3706 217.272 75.3706C216.937 75.3706 216.652 75.4625 216.42 75.6478C216.187 75.8316 216.003 76.1664 215.869 76.6492C215.737 77.1319 215.67 78.1442 215.67 79.6828V82.4798Z" fill="#10298E"/>
    <path d="M225.938 79.5983L228.325 79.9985C228.018 80.8737 227.534 81.5403 226.872 81.9981C226.209 82.456 225.38 82.6849 224.387 82.6849C222.812 82.6849 221.647 82.1694 220.89 81.1416C220.294 80.3178 219.995 79.2775 219.995 78.0207C219.995 76.521 220.387 75.3452 221.172 74.4949C221.956 73.6462 222.949 73.221 224.147 73.221C225.494 73.221 226.557 73.6664 227.336 74.5557C228.115 75.4449 228.487 76.8076 228.453 78.6436H222.451C222.468 79.3538 222.661 79.9066 223.03 80.3022C223.399 80.6962 223.86 80.894 224.411 80.894C224.787 80.894 225.103 80.7912 225.358 80.5872C225.614 80.3832 225.807 80.053 225.938 79.5983ZM226.075 77.1766C226.058 76.4836 225.878 75.9557 225.537 75.596C225.196 75.2347 224.781 75.054 224.292 75.054C223.77 75.054 223.337 75.2456 222.996 75.6255C222.655 76.0055 222.488 76.5241 222.493 77.1766H226.075Z" fill="#10298E"/>
    <path d="M232.718 76.1884L230.546 75.7959C230.789 74.9207 231.211 74.2728 231.807 73.8524C232.404 73.4319 233.29 73.2216 234.467 73.2216C235.534 73.2216 236.33 73.3478 236.855 73.6016C237.376 73.8539 237.744 74.1747 237.957 74.5641C238.17 74.9534 238.276 75.6682 238.276 76.7085L238.251 79.5039C238.251 80.3012 238.29 80.8868 238.367 81.2652C238.443 81.6421 238.586 82.0486 238.798 82.4799H236.428C236.364 82.3211 236.288 82.0844 236.197 81.7729C236.157 81.6312 236.129 81.5362 236.112 81.491C235.702 81.8882 235.265 82.1872 234.799 82.3865C234.333 82.5858 233.836 82.6839 233.307 82.6839C232.374 82.6839 231.641 82.4317 231.103 81.9255C230.566 81.4194 230.297 80.7809 230.297 80.0069C230.297 79.4961 230.42 79.0398 230.664 78.6396C230.909 78.2394 231.25 77.9326 231.692 77.7176C232.131 77.5058 232.767 77.319 233.597 77.1601C234.716 76.9499 235.492 76.7537 235.923 76.5715V76.3332C235.923 75.8722 235.811 75.5452 235.582 75.349C235.355 75.1527 234.927 75.0546 234.296 75.0546C233.871 75.0546 233.537 75.1387 233.298 75.3069C233.059 75.4735 232.866 75.7679 232.718 76.1884ZM235.923 78.1319C235.616 78.2347 235.132 78.3562 234.467 78.4994C233.802 78.6411 233.366 78.7797 233.162 78.9168C232.849 79.1379 232.693 79.4198 232.693 79.7609C232.693 80.0957 232.818 80.3853 233.069 80.6298C233.318 80.8743 233.636 80.9958 234.023 80.9958C234.455 80.9958 234.867 80.8541 235.258 80.5707C235.549 80.3542 235.739 80.0895 235.831 79.778C235.892 79.5724 235.923 79.1831 235.923 78.61V78.1319Z" fill="#10298E"/>
    <path d="M53.1826 20.8663H36.8042C36.8042 18.1783 36.4881 16.375 35.859 15.4561C34.8841 14.0981 32.1946 13.4176 27.792 13.4176C23.5156 13.4176 20.6813 13.8085 19.2984 14.5918C17.9155 15.3783 17.2224 17.0867 17.2224 19.717C17.2224 22.0981 17.836 23.6679 19.0648 24.4185C19.9447 24.9527 21.108 25.2657 22.5563 25.3592L25.8594 25.5928C32.939 26.0615 37.3602 26.3932 39.1231 26.5817C44.7217 27.1454 48.7801 28.6342 51.2983 31.0465C53.2792 32.9293 54.4612 35.3899 54.8381 38.4267C55.0592 40.2441 55.1682 42.3013 55.1682 44.5859C55.1682 49.8528 54.6652 53.7087 53.6607 56.1521C51.8371 60.6372 47.7398 63.47 41.3656 64.6598C38.6948 65.1628 34.61 65.4135 29.1142 65.4135C19.9415 65.4135 13.5503 64.8685 9.9404 63.7706C5.51137 62.4266 2.58983 59.7028 1.17734 55.6024C0.389331 53.3194 0 49.5164 0 44.1934H16.3784C16.3784 44.7868 16.3799 45.2415 16.3799 45.5545C16.3799 48.3951 17.196 50.2203 18.8265 51.0348C19.9556 51.5954 21.3182 51.8897 22.9207 51.9256H28.9429C32.0155 51.9256 33.9761 51.7683 34.8218 51.4521C36.3277 50.8603 37.3166 49.9073 37.7885 48.5882C38.0392 47.7753 38.1638 46.7257 38.1638 45.4393C38.1638 42.5598 37.1126 40.8078 35.0133 40.1787C34.2269 39.931 30.5765 39.5838 24.0575 39.1461C18.8218 38.7724 15.1855 38.4126 13.15 38.0638C7.78818 37.0609 4.21412 34.9974 2.43098 31.8657C0.862758 29.2057 0.0794235 25.1801 0.0794235 19.7933C0.0794235 15.6928 0.503016 12.4038 1.3502 9.93075C2.19738 7.45616 3.56316 5.57802 5.44752 4.29323C8.20866 2.3201 11.7422 1.16301 16.042 0.817283C19.6207 0.50426 23.5904 0.345413 27.9571 0.345413C34.8311 0.345413 39.7305 0.740974 42.6504 1.52431C49.7783 3.43982 53.3415 8.80324 53.3415 17.6177C53.3415 18.3403 53.2885 19.4211 53.1826 20.8663Z" fill="#10298E"/>
    <path d="M125.207 65.4142V0.000305176H150.867H154.894H158.007C162.506 0.000305176 165.939 0.366276 168.298 1.10133C173.693 2.79103 177.312 6.25296 179.167 11.4825C180.123 14.228 180.602 18.3612 180.602 23.8803C180.602 30.5161 180.071 35.2831 179.02 38.1875C176.916 43.9278 172.587 47.2355 166.048 48.092C165.278 48.2213 162.006 48.335 156.23 48.4284L153.309 48.525H142.812V65.4142H125.207ZM142.812 33.3504H153.787C157.267 33.2258 159.384 32.958 160.145 32.539C161.186 31.9675 161.885 30.8213 162.232 29.1036C162.455 27.9605 162.565 26.2599 162.565 24.0018C162.565 21.2344 162.344 19.1834 161.9 17.8441C161.268 15.9676 159.751 14.826 157.35 14.4102C156.873 14.3479 155.737 14.3137 153.935 14.3137H142.812V33.3504Z" fill="#10298E"/>
    <path d="M218.182 54.1092H194.643L191.48 65.4139H173.266L192.921 0H219.478L239.373 65.4139H221.541L218.182 54.1092ZM214.686 41.3656L206.437 13.0099L198.432 41.3656H214.686Z" fill="#10298E"/>
    <path d="M100.907 9.20286C108.168 9.20286 114.649 12.548 118.908 17.7868L122.704 9.64981C116.769 4.04033 108.691 0.581512 99.7813 0.581512C85.9087 0.581512 74.0419 8.95992 69.1721 20.8205H61.7717L57.4019 30.1878H66.9218C66.8501 31.0568 66.8034 31.9258 66.8034 32.8135C66.8034 33.8865 66.8595 34.9485 66.9654 35.9966H62.1813L57.813 45.367H69.3995C74.4078 56.9271 86.1267 65.0423 99.7813 65.0423C106.663 65.0423 113.048 62.9804 118.335 59.4577V47.974C114.078 52.822 107.85 55.8852 100.907 55.8852C92.7921 55.8852 85.6533 51.7007 81.4968 45.367H105.757L110.127 35.9966H77.9274C77.7608 34.8691 77.672 33.7167 77.672 32.5425C77.672 31.7482 77.7125 30.9634 77.7904 30.1878H112.835L117.203 20.8205H80.8193C84.8435 13.8764 92.3311 9.20286 100.907 9.20286Z" fill="#FFBE00"/>
    <path d="M100.907 9.48348C107.827 9.48348 114.308 12.5763 118.69 17.9647L118.974 18.3135L119.165 17.9071L122.959 9.77003L123.043 9.58471L122.898 9.44455C116.66 3.54852 108.449 0.301498 99.7814 0.301498C93.0117 0.301498 86.499 2.2793 80.944 6.02155C75.5198 9.67503 71.3586 14.7566 68.9136 20.7133L69.1722 20.5389H61.7718H61.5911L61.5164 20.7009L57.1481 30.0698L56.9612 30.47H57.4019H66.9218L66.6415 30.1647C66.5621 31.1381 66.5232 32.0024 66.5232 32.8138C66.5232 33.865 66.5777 34.9473 66.6851 36.025L66.9654 35.7166H62.1813H62.0038L61.929 35.8786L57.5576 45.2474L57.3723 45.6477H57.813H69.3995L69.141 45.4779C74.3643 57.5332 86.3915 65.3229 99.7814 65.3229C106.493 65.3229 112.961 63.3778 118.491 59.6932L118.614 59.6106V59.458V47.9743V47.2284L118.124 47.789C113.761 52.7553 107.487 55.6021 100.907 55.6021C93.1674 55.6021 85.9991 51.7166 81.7304 45.2116L81.4968 45.6477H105.757H105.937L106.012 45.4873L110.382 36.1153L110.569 35.7166H110.127H77.9274L78.2062 35.9564C78.0396 34.8212 77.9539 33.675 77.9539 32.5428C77.9539 31.7719 77.9928 30.9901 78.0707 30.2161L77.7904 30.47H112.835H113.016L113.09 30.308L117.459 20.9392L117.647 20.5389H117.203H80.8194L81.0623 20.961C85.1643 13.8814 92.7703 9.48348 100.907 9.48348ZM80.8194 21.1011H117.203L116.948 20.7009L112.581 30.0698L112.835 29.9078H77.7904H77.5366L77.5085 30.1616C77.4307 30.9528 77.3917 31.7548 77.3917 32.5428C77.3917 33.7014 77.4789 34.8788 77.6487 36.039L77.6861 36.2788H77.9274H110.127L109.873 35.8786L105.505 45.2474L105.757 45.0855H81.4968H80.9751L81.2617 45.5184C85.6331 52.1869 92.979 56.1627 100.907 56.1627C107.647 56.1627 114.078 53.2474 118.547 48.1596L118.053 47.9743V59.458L118.178 59.226C112.741 62.8468 106.381 64.7607 99.7814 64.7607C86.6142 64.7607 74.791 57.1033 69.658 45.2537L69.5833 45.0855H69.3995H57.813L58.07 45.4873L62.4367 36.1153L62.1813 36.2788H66.9654H67.2753L67.2457 35.9689C67.1399 34.9099 67.0838 33.8463 67.0838 32.8138C67.0838 32.0195 67.1227 31.1677 67.2021 30.2115L67.2271 29.9078H66.9218H57.4019L57.6557 30.308L62.0256 20.9392L61.7718 21.1011H69.1722H69.3606L69.4307 20.9267C71.8367 15.0727 75.9263 10.0799 81.2586 6.48719C86.7185 2.81035 93.1254 0.86525 99.7814 0.86525C108.306 0.86525 116.376 4.05621 122.511 9.85413L122.448 9.5302L118.656 17.6688L119.128 17.6096C114.635 12.0889 107.996 8.92129 100.907 8.92129C92.5678 8.92129 84.7797 13.4266 80.5749 20.6791L80.3304 21.1011H80.8194Z" fill="#10298E"/>
</svg>
