<svg width="281" height="100" viewBox="0 0 281 100" fill="none" xmlns="http://www.w3.org/2000/svg">
<g clip-path="url(#clip0_201_400)">
<path d="M37.3037 0H0.779785V36.5239H37.3037V0Z" fill="#F25022"/>
<path d="M77.6724 0H41.1484V36.5239H77.6724V0Z" fill="#7FBA00"/>
<path d="M37.3037 40.3686H0.779785V76.8925H37.3037V40.3686Z" fill="#00A4EF"/>
<path d="M77.6724 40.3686H41.1484V76.8925H77.6724V40.3686Z" fill="#FFB900"/>
<path d="M129.652 8.65402H116.417V37.8911H129.652C134.551 37.8911 138.338 36.6226 141.013 34.0855C143.689 31.5485 145.026 27.934 145.026 23.2421C145.026 18.5867 143.689 14.9926 141.013 12.4596C138.338 9.92255 134.551 8.65402 129.652 8.65402ZM105.891 76.8925V0H129.652C138.373 0 144.957 1.98207 149.405 5.94621C153.886 9.86969 156.126 15.635 156.126 23.2421C156.126 30.9223 153.886 36.7242 149.405 40.6477C144.957 44.5752 138.373 46.539 129.652 46.539H116.417V76.8925H105.891ZM201.098 48.4662H191.559C183.814 48.4662 178.447 49.3525 175.459 51.1252C172.47 52.8979 170.976 55.9208 170.976 60.1939C170.976 63.597 172.088 66.3068 174.312 68.3235C176.573 70.3035 179.63 71.2935 183.485 71.2935C188.799 71.2935 193.053 69.4172 196.249 65.6645C199.481 61.8792 201.098 56.86 201.098 50.6068V48.4662ZM210.685 44.502V77.8008H201.098V68.9455C198.91 72.4868 196.184 75.1093 192.919 76.8128C189.65 78.4798 185.654 79.3133 180.929 79.3133C174.957 79.3133 170.198 77.6463 166.652 74.3124C163.143 70.9418 161.389 66.443 161.389 60.816C161.389 54.2498 163.579 49.2976 167.957 45.9596C172.369 42.6257 178.935 40.9587 187.656 40.9587H201.098V40.0195C201.098 35.6081 199.638 32.203 196.719 29.8042C193.836 27.3729 189.772 26.1572 184.527 26.1572C181.194 26.1572 177.945 26.5577 174.782 27.3587C171.619 28.1556 168.579 29.3529 165.664 30.9508V22.0955C169.173 20.7416 172.576 19.7333 175.873 19.0706C179.175 18.3753 182.389 18.0277 185.515 18.0277C193.96 18.0277 200.266 20.2171 204.434 24.596C208.601 28.9748 210.685 35.6102 210.685 44.502ZM280.362 19.4365L254.723 83.2225C252.011 90.171 249.371 94.7043 246.801 96.8226C244.231 98.9409 240.792 100 236.482 100H228.822V91.9802H234.451C237.09 91.9802 239.139 91.3541 240.599 90.1019C242.058 88.8496 243.674 85.8958 245.447 81.2405L247.167 76.8677L223.559 19.4365H233.719L251.961 65.0851L270.202 19.4365H280.362Z" fill="#706D6E" stroke="#706D6E" stroke-width="0.35514"/>
</g>
<defs>
<clipPath id="clip0_201_400">
<rect width="279.582" height="100" fill="white" transform="translate(0.779785)"/>
</clipPath>
</defs>
</svg>
