<svg xmlns="http://www.w3.org/2000/svg" xmlns:xlink="http://www.w3.org/1999/xlink" width="270" height="100" viewBox="0 0 270 100">
  <defs>
    <clipPath id="clip-Plaid_100PX_-_Light_Mode">
      <rect width="270" height="100"/>
    </clipPath>
  </defs>
  <g id="Plaid_100PX_-_Light_Mode" data-name="Plaid 100PX - Light Mode" clip-path="url(#clip-Plaid_100PX_-_Light_Mode)">
    <path id="Plaid__company_-Logo.wine" data-name="Plaid_(company)-Logo.wine" d="M139.549,34.268q-3.34-2.809-11.4-2.808H116.022V68.93h9.066V57.186h4.061q7.394,0,10.844-3.257a12.706,12.706,0,0,0,3.895-9.717,12.318,12.318,0,0,0-4.339-9.945m-10.625,14.44h-3.836V39.938h3.446q6.288,0,6.288,4.411,0,4.354-5.9,4.356M159.4,31.458h-9.454v37.47H170.36V60.447H159.4Zm29.48,0-14.851,37.47H184.21l1.946-5.447h12.9l1.78,5.447h10.292l-14.745-37.47Zm-.112,24.437,3.895-12.807L196.5,55.895h-7.731Zm27.085,13.033h9.456V31.458h-9.456Zm46.167-30.447a15.538,15.538,0,0,0-4.508-4.325q-4.281-2.7-11.68-2.7H233.377V68.928h14.572q7.9,0,12.681-5.167t4.782-13.709a19.475,19.475,0,0,0-3.391-11.571M246.892,60.445h-4.059v-20.5h4.116a8.337,8.337,0,0,1,6.673,2.711q2.338,2.708,2.338,7.682,0,10.111-9.068,10.111M39.258,0,8.615,8.026.171,38.841,10.732,49.685,0,60.35,7.948,91.3l30.51,8.525L49.192,89.158,59.754,100,90.4,91.974l8.443-30.818L88.28,50.317,99.012,39.652,91.064,8.7,60.55.175,49.82,10.84Zm-18.8,13.953L36.6,9.723l7.059,7.246L33.36,27.2Zm35.435,3.113L63.061,9.94l16.072,4.491L66.016,27.464ZM9.841,36.311l4.447-16.23,12.9,13.245L16.9,43.555,9.841,36.309Zm62.24-2.618L85.2,20.656l4.183,16.3-7.17,7.128Zm-32.654-.268L49.721,23.2l10.126,10.4L49.554,43.823ZM22.967,49.782,33.259,39.553l10.132,10.4-10.3,10.229Zm32.656.268L65.915,39.821l10.128,10.4L65.749,60.447Zm-46,12.991L16.8,55.91l10.126,10.4L13.814,79.34Zm29.535,3.366L49.455,56.177l10.128,10.4L49.291,76.8Zm32.654.27L82.11,56.447l7.059,7.244-4.445,16.23ZM19.879,85.571,32.993,72.534l10.132,10.4-7.175,7.13L19.879,85.569Zm35.479-2.54L65.65,72.8l12.9,13.248-16.14,4.228Z" transform="translate(0)" fill="#0b1a0b" fill-rule="evenodd"/>
  </g>
</svg>
