<svg width="343" height="100" viewBox="0 0 343 100" fill="none" xmlns="http://www.w3.org/2000/svg">
<path d="M80.0003 3.56198e-06H15.1987C6.81499 -0.00582324 0.00603143 7.13784 0.000486668 15.9538V83.8943C-0.0660504 92.7277 6.69856 99.9355 15.1044 99.9996H79.8395C88.2398 100.064 95.0986 92.9608 95.1596 84.1274C95.1652 84.0982 95.1652 84.0633 95.1652 84.0283V82.9911C95.1652 82.9911 70.5742 72.2116 58.0874 65.8487C50.9402 76.0456 39.8451 82.3735 27.813 83.1193C8.90537 83.1193 2.47344 65.7147 11.3783 54.2883C14.1174 51.1011 17.7548 48.9218 21.7581 48.0536C29.7925 45.9735 42.6452 49.353 54.6275 53.5075C56.8398 49.1199 58.6197 44.5051 59.9449 39.7388H22.8671V35.8407H42.0187V28.697H19.0467V24.7989H42.1573V14.6661C42.1407 13.7513 42.8337 12.9938 43.7043 12.9821H53.1581V24.7989H76.0191V28.697H53.1581V35.8407H71.8162C70.175 43.2232 67.5135 50.3144 63.9094 56.8812C69.5983 59.0896 74.6662 61.0358 78.4921 62.4633C83.9093 64.6542 89.4929 66.3498 95.1763 67.5268V15.9654C95.1818 7.14949 88.3895 3.56198e-06 80.0003 3.56198e-06Z" fill="#00A0E9"/>
<path d="M14.4169 56.835C7.05044 63.0342 11.6789 74.7677 26.7102 75.0311C36.4629 74.4195 45.2902 69.3616 50.7523 61.2489C42.5476 56.2775 33.234 53.6578 23.8127 53.6881C20.4298 53.7961 17.1687 54.8883 14.4169 56.835Z" fill="#00A0E9"/>
<path d="M297.837 32.5016H310.434L322.916 58.0871L333.173 34.0573C333.367 33.562 333.722 33.1483 334.171 32.892C334.626 32.6414 335.136 32.5074 335.646 32.5016H342.444L322.672 78.7373C319.705 86.4345 312.048 90.9212 304.257 89.5169V82.5247C305.865 82.5247 311.177 82.6529 313.528 79.7978C314.105 79.0053 314.56 78.1313 314.887 77.199C315.264 76.4182 315.508 75.7715 315.874 75.1189L317.232 71.7393L297.837 32.5016ZM284.984 33.7776C277.449 31.7965 269.542 32.0238 262.123 34.4244C262.494 35.4616 262.86 37.2796 263.232 38.3226C278.929 35.4674 281.895 37.67 281.895 44.8136V47.022C279.045 46.7598 275.585 46.3752 272.874 46.2412C265.344 45.7109 258.829 51.6893 258.319 59.5962C258.297 59.9517 258.286 60.3013 258.286 60.6567C258.286 70.5273 267.163 79.7453 281.895 72.893V74.4488H294.127V44.4524C293.689 39.15 289.952 34.8032 284.984 33.8009V33.7776ZM268.172 61.1636C268.161 56.3857 271.676 52.4118 276.212 52.0738C278.114 51.7767 280.066 52.1379 281.757 53.111V67.7829C280.31 69.3736 278.302 70.2593 276.212 70.2535C271.632 70.0029 268.083 65.9766 268.172 61.1636ZM213.8 35.7063C213.795 35.0828 214.016 34.4769 214.421 34.0165C214.826 33.5271 215.414 33.2416 216.029 33.2357H225.66V36.4813C227.091 35.2635 228.671 34.2613 230.362 33.498C232.325 32.6822 234.421 32.2801 236.539 32.3326C238.89 32.2918 241.213 32.8279 243.337 33.8884C245.35 34.8964 247.152 36.3065 248.655 38.0429C250.141 39.8725 251.272 41.9934 251.976 44.2776C252.78 46.7015 253.201 49.2478 253.218 51.8116C253.223 54.9756 252.769 58.1221 251.859 61.1345C251 63.8731 249.614 66.3903 247.784 68.5346C246.043 70.638 243.892 72.322 241.48 73.4699C238.829 74.6935 235.968 75.317 233.074 75.2878C231.71 75.3228 230.351 75.2762 228.993 75.1596C227.845 75.0431 226.725 74.7343 225.666 74.2507V90.8745H213.8V35.7063ZM226.154 64.0188C226.126 64.9977 226.298 65.9708 226.653 66.8739C227.002 67.7421 227.501 68.5346 228.133 69.2046C228.815 69.8747 229.608 70.3991 230.479 70.7662C231.421 71.1391 232.431 71.3139 233.445 71.2848C234.471 71.2557 235.464 70.8944 236.284 70.2476C237.26 69.4319 238.059 68.418 238.635 67.2585C239.362 65.7843 239.905 64.2169 240.243 62.597C240.653 60.6858 240.859 58.728 240.87 56.7702C240.909 54.3812 240.748 51.9864 240.376 49.6266C240.082 47.8377 239.578 46.0955 238.89 44.4349C238.419 43.2112 237.654 42.1391 236.672 41.3175C235.846 40.6708 234.854 40.3095 233.828 40.2804C233.068 40.2862 232.325 40.4144 231.61 40.6708C230.889 40.933 230.224 41.3292 229.636 41.8361C228.987 42.3605 228.372 42.9257 227.784 43.5259C227.18 44.161 226.642 44.8602 226.176 45.6061V64.0479L226.154 64.0188ZM191.555 36.2249C191.56 35.5781 191.832 34.9605 192.298 34.5351C192.763 34.0806 193.39 33.8417 194.022 33.8884H204.008V75.4452H191.654V36.2249H191.555ZM181.79 74.0176H169.303V20.51C169.315 19.8632 169.586 19.2514 170.052 18.8202C170.518 18.3657 171.144 18.1327 171.782 18.1734H181.79V74.0176ZM151.261 74.0176H164.369L139.9 18.1734H136.334C135.758 18.1443 135.186 18.3308 134.726 18.692C134.261 19.0242 133.883 19.4728 133.617 19.9914L108.771 74.0176H117.549L121.99 64.9278H147.202L151.272 74.0176H151.261ZM134.954 36.3531L145.827 61.0296H123.576L134.954 36.3531Z" fill="black"/>
<path d="M203.922 21.3596C204.294 24.949 201.826 28.1712 198.416 28.5558C195.006 28.9462 191.935 26.3532 191.563 22.7697C191.192 19.1804 193.659 15.964 197.075 15.5736C197.296 15.5445 197.524 15.5328 197.745 15.5328C200.972 15.3405 203.739 17.9276 203.922 21.3188V21.3596Z" fill="#00A0E9"/>
</svg>
