<svg width="330" height="100" viewBox="0 0 330 100" fill="none" xmlns="http://www.w3.org/2000/svg">
<path d="M39.2248 63.2561C38.738 63.5145 38.19 63.6639 37.6074 63.6639C36.2589 63.6639 35.0869 62.8844 34.4714 61.7304L34.2357 61.1887L24.4178 38.5486C24.3119 38.3025 24.2463 38.0239 24.2463 37.7528C24.2463 36.7094 25.0514 35.8641 26.0443 35.8641C26.447 35.8641 26.82 36.0044 27.1198 36.2386L38.7055 44.9073C39.5518 45.4887 40.5632 45.8299 41.6503 45.8299C42.2993 45.8299 42.9178 45.7031 43.4948 45.4824L97.9783 20.0001C88.2121 7.90508 72.1282 0 53.9273 0C24.1429 0 0 21.1434 0 47.2268C0 61.4558 7.26377 74.2653 18.6334 82.9233C19.5453 83.6077 20.1426 84.7319 20.1426 86.0009C20.1426 86.4205 20.057 86.8033 19.9526 87.2036C19.0445 90.763 17.5911 96.4636 17.5236 96.7307C17.4101 97.1773 17.2333 97.6441 17.2333 98.1113C17.2333 99.1547 18.0376 100 19.032 100C19.4216 100 19.7406 99.8474 20.0698 99.6485L31.8758 92.4853C32.7639 91.9475 33.704 91.613 34.7403 91.613C35.2912 91.613 35.8237 91.703 36.3245 91.8639C41.8321 93.5287 47.7745 94.4536 53.9277 94.4536C83.7102 94.4536 107.857 73.309 107.857 47.2268C107.857 39.3265 105.629 31.8862 101.713 25.3412L39.62 63.0168L39.2248 63.2561Z" fill="#1AAD19"/>
<path d="M152.896 81.079L152.482 82.6226C152.136 83.9097 151.83 85.0466 151.567 86.1697C151.23 84.5132 150.765 82.6618 150.346 81.0287L147.571 70.0327L147.523 69.8377H145.704L142.6 81.1008C142.045 83.0058 141.552 84.7252 141.207 86.2299C140.941 85.0403 140.62 83.7135 140.285 82.3214L137.275 70.0327L137.225 69.8377H135.126L140.169 89.9042L140.218 90.1008H142.008L145.251 78.6046C145.816 76.645 146.243 75.1047 146.551 73.7581C146.827 75.1792 147.21 76.7409 147.69 78.5908L150.494 89.9058L150.543 90.1008H152.359L158.041 70.1761L158.139 69.8377H156.029L152.896 81.079Z" fill="#514F4F"/>
<path d="M164.752 75.1324C160.979 75.1324 158.443 78.3082 158.443 83.0363C158.443 87.4343 161.068 90.3901 164.973 90.3901C167.428 90.3901 168.822 89.7283 169.308 89.4458L169.607 89.2702L168.723 87.6609L168.514 87.7616C167.823 88.0976 166.883 88.4412 165.139 88.4412C162.279 88.4412 160.583 86.4645 160.467 83.0125H170.138L170.201 82.7129C170.263 82.411 170.263 82.1914 170.263 81.792C170.263 81.2502 170.192 79.3556 169.259 77.7098C168.293 75.9991 166.776 75.1324 164.752 75.1324ZM160.577 81.1504C161.088 78.1319 162.973 77.0512 164.586 77.0512C165.612 77.0512 166.434 77.3754 167.035 78.0174C167.921 78.9625 168.121 80.3325 168.156 81.1504H160.577Z" fill="#514F4F"/>
<path d="M185.838 87.6338H185.836C184.793 88.1383 183.33 88.4411 181.923 88.4411C177.237 88.4411 174.439 85.3287 174.439 80.1144C174.439 74.7004 177.319 71.4683 182.144 71.4683C183.478 71.4683 184.746 71.7322 185.717 72.2121L185.925 72.3151L186.867 70.5969L186.586 70.4344C186.214 70.2192 184.792 69.5186 182.116 69.5186C176.267 69.5186 172.337 73.7647 172.337 80.0843C172.337 87.6901 177.264 90.3908 181.483 90.3908C183.86 90.3908 185.713 89.8606 186.656 89.366L186.963 89.2035L186.045 87.5332L185.838 87.6338Z" fill="#514F4F"/>
<path d="M195.366 75.1324C194.334 75.1324 193.345 75.4304 192.514 75.9924C192.036 76.2805 191.592 76.6779 191.212 77.1535V69.5195H189.166V90.1008H191.212V81.2431C191.212 80.7113 191.235 80.3693 191.357 79.9798C191.931 78.29 193.433 77.1091 195.009 77.1091C197.855 77.1091 198.28 79.8613 198.28 81.5031V90.1004H200.327V81.3588C200.326 75.432 196.194 75.1324 195.366 75.1324Z" fill="#514F4F"/>
<path d="M218.598 72.3307H216.55V75.5854H214.319V77.3417H216.55V85.7278C216.55 87.3982 216.847 88.566 217.453 89.2888C218.001 90.0271 218.882 90.4191 219.996 90.4191C220.77 90.4191 221.44 90.2922 221.987 90.0406L222.317 89.8888L221.457 88.3247L221.279 88.3659C220.969 88.4349 220.593 88.4713 220.163 88.4713C219.066 88.4713 218.598 87.7283 218.598 85.9882V77.3421H222.37V75.5858H218.598V72.3307Z" fill="#514F4F"/>
<path d="M235.744 69.6935C234.386 69.6935 233.021 69.8227 231.688 70.0743L231.389 70.131V90.1016H233.436V81.868C233.987 81.9754 234.599 81.9996 235.332 81.9996C237.786 81.9996 239.817 81.1829 241.051 79.7055C241.984 78.6296 242.439 77.2676 242.439 75.5422C242.439 73.8572 241.906 72.4433 240.897 71.451C239.778 70.3022 237.996 69.6935 235.744 69.6935ZM233.436 71.7795C233.837 71.709 234.589 71.6131 235.689 71.6131C238.678 71.6131 240.393 73.0975 240.393 75.6872C240.393 78.479 238.587 80.0796 235.442 80.0796C234.832 80.0796 234.062 80.057 233.436 79.8878V71.7795H233.436Z" fill="#514F4F"/>
<path d="M264.979 75.4508L261.671 84.6921C261.406 85.418 261.172 86.1409 260.974 86.7555C260.766 86.083 260.534 85.3927 260.309 84.7749L256.839 75.6905L256.75 75.4508H254.563L259.663 88.8479C259.8 89.2125 259.803 89.3107 259.803 89.3147C259.803 89.4066 259.732 89.602 259.666 89.7744C259.008 91.4146 258.148 92.5151 257.545 93.1483C256.716 93.9873 255.819 94.4184 255.358 94.5995L254.986 94.7426L255.955 96.5017L256.152 96.4228C256.5 96.2833 257.421 95.864 258.448 94.9546C260.208 93.3409 261.321 90.8887 263.008 86.3331L267.034 75.8114L267.175 75.4508H264.979Z" fill="#514F4F"/>
<path d="M212.714 86.4211V80.9829C212.714 77.1548 211.008 75.1321 207.78 75.1321C206.355 75.1321 204.827 75.599 203.701 76.3785L203.49 76.5124L204.378 78.1277L204.601 77.9707C205.429 77.3787 206.51 77.0506 207.643 77.0506H207.689C208.6 77.0506 209.307 77.3073 209.793 77.8146C210.38 78.4253 210.665 79.3843 210.666 80.7427C207.505 80.7542 205.222 81.4656 203.881 82.8636C203.03 83.7482 202.6 84.8776 202.6 86.219C202.6 88.2416 203.928 90.4196 206.844 90.4196C208.878 90.4196 210.18 89.3865 210.862 88.6292L211.003 90.1014H212.968L212.9 89.6603C212.737 88.5892 212.714 87.4708 212.714 86.4211ZM205.442 84.024C206.333 83.1161 208.006 82.6564 210.414 82.6564L210.663 82.658L210.667 85.2639C210.667 85.4466 210.647 85.7177 210.549 85.9792C210.153 87.199 209.009 88.5 206.983 88.5C205.93 88.5 204.702 87.8406 204.702 85.9883C204.701 85.1875 204.95 84.5272 205.442 84.024Z" fill="#514F4F"/>
<path d="M253.042 86.4211V80.9829C253.042 77.1548 251.336 75.1321 248.109 75.1321C246.765 75.1321 245.299 75.5609 244.189 76.2778L243.983 76.4141L244.862 78.0115L245.082 77.8677C245.888 77.3414 246.914 77.0506 247.972 77.0506H248.02C248.928 77.0506 249.635 77.3073 250.122 77.8138C250.709 78.4253 250.994 79.3843 250.995 80.7435C247.836 80.7542 245.553 81.4671 244.21 82.8628C243.36 83.7481 242.929 84.8768 242.929 86.2198C242.929 88.2416 244.258 90.4196 247.173 90.4196C249.207 90.4196 250.51 89.3873 251.191 88.6292L251.331 90.1014H253.298L253.231 89.6603C253.064 88.5852 253.042 87.4693 253.042 86.4211ZM250.995 85.2639C250.995 85.4482 250.974 85.7205 250.877 85.98C250.481 87.1974 249.336 88.5 247.311 88.5C246.258 88.5 245.03 87.8414 245.03 85.9883C245.03 85.1875 245.279 84.5269 245.772 84.024C246.662 83.1161 248.336 82.6564 250.742 82.6564L250.994 82.658L250.995 85.2639Z" fill="#514F4F"/>
<path d="M228.411 26.4173H201.214V28.9816H228.411V26.4173Z" fill="#514F4F"/>
<path d="M228.411 34.4225H201.214V37.1858H228.411V34.4225Z" fill="#514F4F"/>
<path d="M201.903 58.1019H227.724V42.6306H201.903V58.1019ZM204.532 45.1926H225.093V55.5356H204.532V45.1926Z" fill="#514F4F"/>
<path d="M193.748 59.7082V24.1147C195.29 20.6226 196.655 16.8591 197.769 13.0473L195.337 11.5691C192.936 20.4614 189.416 28.5428 185 35.305L186.451 37.9248C187.982 35.5463 189.598 32.749 191.118 29.8172V59.7082H193.748Z" fill="#514F4F"/>
<path d="M293.676 59.7082V24.1147C295.219 20.6226 296.583 16.8591 297.698 13.0473L295.266 11.5691C292.865 20.4614 289.346 28.5428 284.929 35.305L286.38 37.9248C287.91 35.5463 289.526 32.749 291.047 29.8172V59.7082H293.676Z" fill="#514F4F"/>
<path d="M231.269 18.2096H215.29L216.983 17.1864L217.044 17.1483L217.015 17.0833C216.821 16.6066 216.312 15.4851 215.771 14.2971C215.27 13.1903 214.753 12.047 214.504 11.4605L214.471 11.3785L212.046 12.8483L212.083 12.9172C212.95 14.6339 213.694 16.2044 214.363 17.7269C214.456 17.9322 214.516 18.0954 214.537 18.21H198.545V20.9748H231.269V18.2096V18.2096Z" fill="#514F4F"/>
<path d="M160.767 16.1114H158.328V25.1209H153.721V12.3091H151.282V25.1209H146.483V16.1114H144.044V27.6845H160.767V16.1114Z" fill="#514F4F"/>
<path d="M159.624 32.7245H144.805V35.2888H159.624V32.7245Z" fill="#514F4F"/>
<path d="M148.006 45.2162V42.8951H155.471V48.6151C155.379 50.6112 155.285 51.2187 154.632 52.1725L154.602 52.2157L156.101 54.9426L156.172 54.8831C157.484 53.7779 159.725 51.7592 162.83 48.8862L162.877 48.8449L161.7 46.7018L161.653 46.6174L157.911 49.9898V40.3316H145.377V44.2223C145.732 49.5476 144.466 53.3586 141.616 55.5433L141.562 55.5849L142.919 58.0586L142.964 58.1414L143.034 58.0804C146.585 55.0088 148.259 50.6782 148.006 45.2162Z" fill="#514F4F"/>
<path d="M131.995 24.421L133.466 27.0999C137.252 23.1184 140.485 18.3352 142.883 13.1649L140.609 11.7819C138.258 16.8226 135.307 21.1556 131.995 24.421Z" fill="#514F4F"/>
<path d="M131.328 40.5241L132.679 42.9846L132.733 43.0853L132.803 42.9977C134.245 41.2307 135.655 39.3661 136.996 37.4544V59.7075H139.435V33.2285C140.539 31.165 141.607 28.861 142.607 26.3771L142.632 26.3137L140.273 24.8842L140.24 24.9718C137.985 30.8975 134.997 36.1158 131.364 40.4805L131.328 40.5241Z" fill="#514F4F"/>
<path d="M169.637 43.6044C168.032 39.25 166.839 33.3295 166.091 26.0046C166.335 25.2374 166.644 24.4544 167.013 23.6772H173.55C173.046 32.0325 171.729 38.7361 169.637 43.6044ZM178.659 23.6772V21.1129H167.832H167.833C168.771 18.1368 169.849 14.674 170.211 11.7083L167.665 11.7043C166.081 19.5048 163.665 26.2741 160.552 31.6136L162.092 34.417L163.223 32.0424C163.648 31.2605 163.992 30.6003 164.251 30.0741C165.014 36.9845 166.346 42.5447 168.212 46.6082C166.42 49.8637 163.665 53.2444 160.02 56.6592L159.973 56.7016L161.378 59.2604L161.429 59.3472L161.498 59.2783C165.358 55.4779 168.031 52.1499 169.444 49.3842C171.054 52.398 173.779 56.0474 176.945 59.4245L177.014 59.499L178.46 56.8744L178.489 56.8177L178.446 56.7737C175.051 53.3673 172.359 49.8308 170.862 46.8147C173.627 41.5053 175.353 33.7211 175.99 23.6768H178.659V23.6772Z" fill="#514F4F"/>
<path d="M315.211 56.1617C314.673 56.1617 314.172 56.1586 313.689 56.1554V58.9179C314.732 58.9179 315.489 58.908 315.986 58.908C318.564 58.908 319.975 58.3282 321.077 57.1703C322.146 56.044 322.659 54.3218 322.596 52.0574V26.3809H329.664V23.6255H322.596V11.7826H319.96V23.6255H298.261V26.3809H319.96V52.0645C319.96 54.8544 318.312 56.1617 315.211 56.1617Z" fill="#514F4F"/>
<path d="M309.327 47.0204L311.939 45.419C310.543 42.4274 308.669 38.4595 306.353 33.5848L303.973 35.0463C305.574 38.3358 307.367 42.347 309.327 47.0204Z" fill="#514F4F"/>
<path d="M266.256 41.0728C264.569 43.0966 262.447 45.3903 259.394 47.6836C251.953 41.7639 248.754 35.2811 247.666 32.5614H271.305C270.718 34.2183 269.309 37.4131 266.256 41.0728ZM281.847 20.959V18.2266H261.156V11.2956H258.492V18.2266H237.8V20.959H258.492V30.0636H245.04L245.041 31.967V32.2317C245.072 32.3201 245.113 32.4299 245.163 32.5614C245.972 34.6962 249.313 42.3152 257.249 49.1954C252.979 51.9809 247.12 54.676 238.704 56.7898L240.241 59.5856C248.281 57.5352 254.508 54.3666 259.315 50.8836C263.989 54.4858 270.646 57.7243 278.387 59.6288L279.68 57.1156C272.277 55.2293 265.906 52.3732 261.456 49.2378C269.562 42.6326 272.959 35.3742 274.016 32.5614C274.267 31.8941 274.389 31.4732 274.409 31.3757L272.247 30.0636H261.156V20.959H281.847V20.959Z" fill="#514F4F"/>
</svg>
