<svg width="109" height="100" viewBox="0 0 109 100" fill="none" xmlns="http://www.w3.org/2000/svg">
<path d="M97.4193 0H10.8244C4.81684 0 0.0541218 5.06185 0.0541218 11.3749L0 79.6246C0 85.9377 4.81684 90.9996 10.8244 90.9996H32.4731C35.4498 90.9996 37.8853 88.4402 37.8853 85.3121C37.8853 82.184 35.4498 79.6246 32.4731 79.6246H10.8244V45.4998H108.244V11.3749C108.244 5.11873 103.373 0 97.4193 0ZM97.4193 22.7499H10.8244V11.3749H97.4193V22.7499ZM69.9796 86.279L58.5057 74.2215C56.395 72.0034 52.9853 72.0034 50.8745 74.2215C48.7638 76.4396 48.7638 80.0227 50.8745 82.2409L66.191 98.3364C68.3018 100.555 71.7115 100.555 73.8222 98.3364L104.455 66.1453C106.566 63.9272 106.566 60.3441 104.455 58.126C102.344 55.9079 98.9347 55.9079 96.824 58.126L69.9796 86.279Z" fill="#B7B7B7"/>
</svg>
